<?xml version="1.0" encoding="UTF-8" standalone="yes"?>
<svg xmlns="http://www.w3.org/2000/svg" viewBox="0 0 80 80" width="80" height="80" fill="#000000">
  <path d="M 15 9 L 15 71 L 65 71 L 65 23.585938 L 50.414062 9 L 50 9 L 15 9 z M 17 11 L 49 11 L 49 25 L 63 25 L 63 69 L 17 69 L 17 11 z M 51 12.414062 L 61.585938 23 L 51 23 L 51 12.414062 z M 22 13 A 1 1 0 0 0 21 14 A 1 1 0 0 0 22 15 A 1 1 0 0 0 23 14 A 1 1 0 0 0 22 13 z M 22 17 A 1 1 0 0 0 21 18 A 1 1 0 0 0 22 19 A 1 1 0 0 0 23 18 A 1 1 0 0 0 22 17 z M 22 21 A 1 1 0 0 0 21 22 A 1 1 0 0 0 22 23 A 1 1 0 0 0 23 22 A 1 1 0 0 0 22 21 z M 22 25 A 1 1 0 0 0 21 26 A 1 1 0 0 0 22 27 A 1 1 0 0 0 23 26 A 1 1 0 0 0 22 25 z M 22 29 A 1 1 0 0 0 21 30 A 1 1 0 0 0 22 31 A 1 1 0 0 0 23 30 A 1 1 0 0 0 22 29 z M 50.40625 30.992188 L 48.992188 32.40625 L 52.085938 35.5 L 48.992188 38.59375 L 50.40625 40.007812 L 53.5 36.914062 L 56.59375 40.007812 L 58.007812 38.59375 L 54.914062 35.5 L 58.007812 32.40625 L 56.59375 30.992188 L 53.5 34.085938 L 50.40625 30.992188 z M 22 33 A 1 1 0 0 0 21 34 A 1 1 0 0 0 22 35 A 1 1 0 0 0 23 34 A 1 1 0 0 0 22 33 z M 29 35 L 29 37 L 36 37 L 36 35 L 29 35 z M 38 35 L 38 37 L 45 37 L 45 35 L 38 35 z M 22 37 A 1 1 0 0 0 21 38 A 1 1 0 0 0 22 39 A 1 1 0 0 0 23 38 A 1 1 0 0 0 22 37 z M 22 41 A 1 1 0 0 0 21 42 A 1 1 0 0 0 22 43 A 1 1 0 0 0 23 42 A 1 1 0 0 0 22 41 z M 58.306641 42.279297 L 52.523438 47.855469 L 49.716797 44.976562 L 48.283203 46.373047 L 52.478516 50.675781 L 59.693359 43.720703 L 58.306641 42.279297 z M 22 45 A 1 1 0 0 0 21 46 A 1 1 0 0 0 22 47 A 1 1 0 0 0 23 46 A 1 1 0 0 0 22 45 z M 29 46 L 29 48 L 36 48 L 36 46 L 29 46 z M 38 46 L 38 48 L 45 48 L 45 46 L 38 46 z M 22 49 A 1 1 0 0 0 21 50 A 1 1 0 0 0 22 51 A 1 1 0 0 0 23 50 A 1 1 0 0 0 22 49 z M 22 53 A 1 1 0 0 0 21 54 A 1 1 0 0 0 22 55 A 1 1 0 0 0 23 54 A 1 1 0 0 0 22 53 z M 50 54 L 50 55 L 50 62 L 58 62 L 58 54 L 50 54 z M 52 56 L 56 56 L 56 60 L 52 60 L 52 56 z M 22 57 A 1 1 0 0 0 21 58 A 1 1 0 0 0 22 59 A 1 1 0 0 0 23 58 A 1 1 0 0 0 22 57 z M 29 57 L 29 59 L 36 59 L 36 57 L 29 57 z M 38 57 L 38 59 L 45 59 L 45 57 L 38 57 z M 22 61 A 1 1 0 0 0 21 62 A 1 1 0 0 0 22 63 A 1 1 0 0 0 23 62 A 1 1 0 0 0 22 61 z M 22 65 A 1 1 0 0 0 21 66 A 1 1 0 0 0 22 67 A 1 1 0 0 0 23 66 A 1 1 0 0 0 22 65 z"/>
</svg>
