<svg id="book_3_" data-name="book (3)" xmlns="http://www.w3.org/2000/svg" width="43.002" height="43.002" viewBox="0 0 43.002 43.002">
  <path id="Path_9539" data-name="Path 9539" d="M21.5,0H12.184a.717.717,0,0,0-.717.717V5.734H.717A.717.717,0,0,0,0,6.45V42.286A.717.717,0,0,0,.717,43H21.5a.717.717,0,0,0,.717-.717V.717A.717.717,0,0,0,21.5,0Zm-.717,37.269H12.9V35.835h7.884ZM1.433,10.751H11.467v21.5H1.433ZM20.784,7.884H12.9V5.734h7.884ZM1.433,33.685H11.467v2.15H1.433ZM12.9,34.4V9.317h7.884V34.4ZM20.784,1.433V4.3H12.9V1.433ZM11.467,7.167v2.15H1.433V7.167ZM1.433,37.269H11.467v4.3H1.433Zm11.467,4.3V38.7h7.884v2.867Zm0,0" fill="#18b85c"/>
  <path id="Path_9540" data-name="Path 9540" d="M268.759,97.506l-8.6-32.968a.716.716,0,0,0-.878-.512L248.53,66.892a.716.716,0,0,0-.509.873l8.6,32.968a.715.715,0,0,0,.878.51l10.751-2.867A.717.717,0,0,0,268.759,97.506ZM250.73,72.471l9.366-2.5.337,1.29-9.365,2.5Zm10.065.184L264.951,88.6l-9.362,2.5-4.157-15.946Zm4.522,17.333.734,2.813-9.366,2.5-.731-2.812ZM258.953,65.6l.78,2.992-9.366,2.5-.78-2.991Zm-1.127,34.079-.78-2.992,9.366-2.5.78,2.991Zm0,0" transform="translate(-225.78 -58.267)" fill="#18b85c"/>
  <path id="Path_9541" data-name="Path 9541" d="M38.45,144H32.717a.717.717,0,0,0-.717.717v5.734a.717.717,0,0,0,.717.717H38.45a.717.717,0,0,0,.717-.717v-5.734A.717.717,0,0,0,38.45,144Zm-.717,5.734h-4.3v-4.3h4.3Zm0,0" transform="translate(-29.133 -131.099)" fill="#18b85c"/>
</svg>
