<svg xmlns="http://www.w3.org/2000/svg" width="43.951" height="40.341" viewBox="0 0 43.951 40.341">
  <g id="chat_2_" data-name="chat (2)" transform="translate(0 -2.465)">
    <path id="Path_9494" data-name="Path 9494" d="M9.733,24.93h9.523a.733.733,0,1,0,0-1.465H9.733a.733.733,0,1,0,0,1.465Z" transform="translate(-2.407 -5.617)" fill="#14bb5b"/>
    <path id="Path_9495" data-name="Path 9495" d="M28.778,29.465H9.733a.733.733,0,0,0,0,1.465H28.778a.733.733,0,0,0,0-1.465Z" transform="translate(-2.407 -7.222)" fill="#14bb5b"/>
    <path id="Path_9496" data-name="Path 9496" d="M28.778,35.465H9.733a.733.733,0,1,0,0,1.465H28.778a.733.733,0,1,0,0-1.465Z" transform="translate(-2.407 -8.827)" fill="#14bb5b"/>
    <path id="Path_9497" data-name="Path 9497" d="M39.609,2.516,14.6,2.465a4.349,4.349,0,0,0-4.344,4.344v3.753l-5.911.012A4.349,4.349,0,0,0,0,14.919V30.4a4.348,4.348,0,0,0,4.344,4.343H8.79v7.325a.733.733,0,0,0,1.275.493l7.108-7.82,12.179-.05A4.348,4.348,0,0,0,33.7,30.353v-.083l3.853,4.238a.733.733,0,0,0,1.275-.493V26.691h.784a4.348,4.348,0,0,0,4.344-4.343V6.86A4.349,4.349,0,0,0,39.609,2.516ZM32.231,30.353a2.882,2.882,0,0,1-2.882,2.878l-12.5.051a.733.733,0,0,0-.539.24l-6.051,6.656V34.015a.732.732,0,0,0-.733-.733H4.344A2.882,2.882,0,0,1,1.465,30.4V14.918a2.882,2.882,0,0,1,2.88-2.879l6.642-.014h0l18.363-.038a2.882,2.882,0,0,1,2.879,2.879V30.353Zm10.255-8.006a2.881,2.881,0,0,1-2.879,2.878H38.091a.732.732,0,0,0-.733.733V32.12L33.7,28.091V14.867a4.349,4.349,0,0,0-4.345-4.344l-17.63.036V6.808A2.882,2.882,0,0,1,14.6,3.929l25.009.051h0a2.882,2.882,0,0,1,2.879,2.879V22.346Z" transform="translate(0 0)" fill="#14bb5b"/>
  </g>
</svg>
