<svg height="512pt" viewBox="0 0 512 512" width="512pt" xmlns="http://www.w3.org/2000/svg"><path d="m150.664062 136.429688-26.070312 26.070312-6.019531-6.019531c-3.90625-3.90625-10.238281-3.90625-14.144531 0-3.90625 3.902343-3.90625 10.234375 0 14.140625l13.09375 13.09375c1.953124 1.949218 4.511718 2.925781 7.070312 2.925781s5.117188-.976563 7.070312-2.925781l33.144532-33.144532c3.902344-3.90625 3.902344-10.234374 0-14.140624-3.910156-3.90625-10.238282-3.90625-14.144532 0zm0 0"/><path d="m202 153.5h95.5c5.519531 0 10-4.476562 10-10s-4.480469-10-10-10h-95.5c-5.523438 0-10 4.476562-10 10s4.476562 10 10 10zm0 0"/><path d="m202 193.5h45.25c5.519531 0 10-4.476562 10-10s-4.480469-10-10-10h-45.25c-5.523438 0-10 4.476562-10 10s4.476562 10 10 10zm0 0"/><path d="m150.664062 240.429688-26.070312 26.070312-6.019531-6.019531c-3.90625-3.90625-10.238281-3.90625-14.144531 0-3.90625 3.902343-3.90625 10.234375 0 14.140625l13.09375 13.09375c1.953124 1.949218 4.511718 2.925781 7.070312 2.925781s5.117188-.976563 7.070312-2.925781l33.144532-33.144532c3.902344-3.90625 3.902344-10.234374 0-14.140624-3.910156-3.90625-10.238282-3.90625-14.144532 0zm0 0"/><path d="m202 297.5h45.25c5.519531 0 10-4.476562 10-10s-4.480469-10-10-10h-45.25c-5.523438 0-10 4.476562-10 10s4.476562 10 10 10zm0 0"/><path d="m150.664062 345.429688-26.070312 26.070312-6.019531-6.019531c-3.90625-3.90625-10.238281-3.90625-14.144531 0-3.90625 3.902343-3.90625 10.234375 0 14.140625l13.09375 13.09375c1.953124 1.949218 4.511718 2.925781 7.070312 2.925781s5.117188-.976563 7.070312-2.925781l33.144532-33.144532c3.902344-3.90625 3.902344-10.234374 0-14.140624-3.910156-3.90625-10.238282-3.90625-14.144532 0zm0 0"/><path d="m202 362.5h95.5c5.519531 0 10-4.476562 10-10s-4.480469-10-10-10h-95.5c-5.523438 0-10 4.476562-10 10s4.476562 10 10 10zm0 0"/><path d="m202 402.5h45.25c5.519531 0 10-4.476562 10-10s-4.480469-10-10-10h-45.25c-5.523438 0-10 4.476562-10 10s4.476562 10 10 10zm0 0"/><path d="m512 256c0-59.769531-48.355469-108.449219-108-108.988281v-67.511719c0-27.570312-22.429688-50-50-50h-105.515625c-7.960937-17.695312-25.742187-29.5-45.605469-29.5h-1.757812c-19.863282 0-37.644532 11.804688-45.605469 29.5h-105.515625c-27.570312 0-50 22.429688-50 50v382.5c0 27.570312 22.429688 50 50 50h304c27.570312 0 50-22.429688 50-50v-97.011719c26.929688-.246093 51.554688-10.296875 70.46875-26.757812.554688-.398438 1.058594-.847657 1.511719-1.34375 22.105469-19.960938 36.019531-48.828125 36.019531-80.886719zm-20 0c0 21.175781-7.4375 40.640625-19.828125 55.9375-8.394531-16.066406-22.132813-28.621094-38.578125-35.65625 6.496094-7.265625 10.457031-16.839844 10.457031-27.328125v-7.761719c0-22.636718-18.414062-41.050781-41.050781-41.050781-22.632812 0-41.046875 18.414063-41.046875 41.050781v7.761719c0 10.488281 3.957031 20.0625 10.453125 27.328125-16.445312 7.035156-30.183594 19.589844-38.578125 35.65625-12.390625-15.296875-19.828125-34.761719-19.828125-55.9375 0-49.074219 39.925781-89 89-89s89 39.925781 89 89zm-142.964844 70.722656c8.632813-21.902344 29.988282-36.722656 53.964844-36.722656s45.332031 14.820312 53.964844 36.722656c-14.980469 11.457032-33.691406 18.277344-53.964844 18.277344s-38.984375-6.820312-53.964844-18.277344zm32.917969-77.769531v-7.761719c0-11.605468 9.441406-21.050781 21.046875-21.050781s21.050781 9.441406 21.050781 21.050781v7.761719c0 11.605469-9.445312 21.046875-21.050781 21.046875s-21.046875-9.441406-21.046875-21.046875zm2.046875-169.453125v69.160156c-9.851562 1.738282-19.246094 4.804688-28 9.003906v-70.164062c0-5.523438-4.476562-10-10-10h-54v-20.75c0-2.511719-.347656-4.941406-.988281-7.25h62.988281c16.542969 0 30 13.457031 30 30zm-221.476562-30c4.515624 0 8.46875-3.023438 9.652343-7.382812 3.535157-13.019532 15.4375-22.117188 28.945313-22.117188h1.757812c13.507813 0 25.410156 9.097656 28.945313 22.117188 1.183593 4.359374 5.136719 7.382812 9.648437 7.382812h23.277344c3.996094 0 7.25 3.253906 7.25 7.25v20.75h-140v-20.75c0-3.996094 3.253906-7.25 7.25-7.25zm191.476562 442.5h-304c-16.542969 0-30-13.457031-30-30v-382.5c0-16.542969 13.457031-30 30-30h62.988281c-.640625 2.308594-.988281 4.738281-.988281 7.25v20.75h-54c-5.523438 0-10 4.476562-10 10v366.5c0 5.523438 4.476562 10 10 10h104c5.523438 0 10-4.476562 10-10s-4.476562-10-10-10h-94v-346.5h268v72.582031c-20.925781 16.355469-35.746094 40.175781-40.421875 67.417969h-93.578125c-5.523438 0-10 4.476562-10 10s4.476562 10 10 10h92.019531c.425781 31.464844 14.246094 59.753906 36.015625 79.402344.445313.484375.941406.925781 1.484375 1.316406 1.457031 1.273438 2.953125 2.503906 4.480469 3.699219v102.082031h-94c-5.523438 0-10 4.476562-10 10s4.476562 10 10 10h104c5.523438 0 10-4.476562 10-10v-99.664062c8.753906 4.199218 18.148438 7.265624 28 9.003906v98.660156c0 16.542969-13.457031 30-30 30zm0 0"/><path d="m202 58.75c2.628906 0 5.210938-1.070312 7.070312-2.929688 1.859376-1.859374 2.929688-4.441406 2.929688-7.070312s-1.070312-5.210938-2.929688-7.070312c-1.859374-1.859376-4.441406-2.929688-7.070312-2.929688s-5.210938 1.070312-7.070312 2.929688c-1.859376 1.859374-2.929688 4.441406-2.929688 7.070312s1.070312 5.210938 2.929688 7.070312c1.859374 1.859376 4.441406 2.929688 7.070312 2.929688zm0 0"/><path d="m202 444c-2.628906 0-5.210938 1.070312-7.070312 2.929688-1.859376 1.859374-2.929688 4.441406-2.929688 7.070312s1.070312 5.210938 2.929688 7.070312c1.859374 1.859376 4.441406 2.929688 7.070312 2.929688s5.210938-1.070312 7.070312-2.929688c1.859376-1.859374 2.929688-4.441406 2.929688-7.070312s-1.070312-5.210938-2.929688-7.070312c-1.859374-1.859376-4.441406-2.929688-7.070312-2.929688zm0 0"/></svg>