<svg id="class_1_" data-name="class (1)" xmlns="http://www.w3.org/2000/svg" width="49.333" height="49.333" viewBox="0 0 49.333 49.333">
  <path id="Path_9509" data-name="Path 9509" d="M64.933,89.867A4.933,4.933,0,1,0,60,84.933,4.934,4.934,0,0,0,64.933,89.867Zm0-8.222a3.289,3.289,0,1,1-3.289,3.289A3.289,3.289,0,0,1,64.933,81.644Zm0,0" transform="translate(-55.067 -73.422)" fill="#14bb5b"/>
  <path id="Path_9510" data-name="Path 9510" d="M110,410h1.644v15.622H110Zm0,0" transform="translate(-100.956 -376.289)" fill="#14bb5b"/>
  <path id="Path_9511" data-name="Path 9511" d="M49.333,0H14.8V4.933h1.644V18.089H4.111A4.116,4.116,0,0,0,0,22.2v8.222a2.467,2.467,0,0,0,2.467,2.467H4.111V49.333H5.756V23.022H4.111v8.222H2.467a.822.822,0,0,1-.822-.822V22.2a2.467,2.467,0,0,1,2.467-2.467H23.844A2.467,2.467,0,0,1,21.378,22.2h-7.4V49.333h1.644V23.844h.822v2.467a2.467,2.467,0,0,0,2.467,2.467h9.867V29.6a2.466,2.466,0,0,0,2.009,2.42L23.1,48.157l1.485.707,6.66-13.978V49.333h1.644V34.884l6.66,13.978,1.485-.707L33.347,32.02a2.466,2.466,0,0,0,2.009-2.42v-.822h9.867a2.467,2.467,0,0,0,2.467-2.467V4.933h1.644ZM33.711,29.6a.822.822,0,0,1-.822.822H31.244a.822.822,0,0,1-.822-.822v-.822h3.289Zm12.333-3.289a.822.822,0,0,1-.822.822H18.911a.822.822,0,0,1-.822-.822V23.844h3.289a4.116,4.116,0,0,0,4.111-4.111V18.089h-7.4V4.933H46.044ZM47.689,3.289H16.444V1.644H47.689Zm0,0" fill="#14bb5b"/>
  <text id="_1" data-name="1" transform="translate(30.667 17.667)" fill="#14bb5b" font-size="7" font-family="Poppins-Bold, Poppins" font-weight="700"><tspan x="-1.246" y="0">1</tspan></text>
</svg>
