<svg xmlns="http://www.w3.org/2000/svg" width="24.941" height="28.569" viewBox="0 0 24.941 28.569">
  <g id="Group_2" data-name="Group 2" transform="translate(-67.578 -421.713)">
    <g id="Group_9161" data-name="Group 9161" transform="translate(67.578 421.713)">
      <path id="Path_8985" data-name="Path 8985" d="M-340.692,23.569A4.313,4.313,0,0,1-345,19.261v-9.3a4.313,4.313,0,0,1,4.308-4.308h1.585V1.432A6.512,6.512,0,0,1-332.531-5a6.512,6.512,0,0,1,6.575,6.432V5.657h1.589a4.313,4.313,0,0,1,4.308,4.308V14.16a.908.908,0,0,1-.907.907.908.908,0,0,1-.907-.907V9.965a2.5,2.5,0,0,0-2.494-2.494h-16.325a2.5,2.5,0,0,0-2.494,2.494v9.3a2.5,2.5,0,0,0,2.494,2.494h16.325a2.5,2.5,0,0,0,2.494-2.494.908.908,0,0,1,.907-.907.908.908,0,0,1,.907.907,4.313,4.313,0,0,1-4.308,4.308Zm8.16-26.755a4.7,4.7,0,0,0-4.761,4.618V5.657h9.523V1.432A4.7,4.7,0,0,0-332.531-3.186Z" transform="translate(345 5)" fill="#707070"/>
      <rect id="Rectangle_460" data-name="Rectangle 460" width="8" height="8" transform="translate(8.667 16.439)" fill="none"/>
      <path id="Checkbox" d="M3.812,6.63,0,2.818l.773-.773L3.812,5.028,8.84,0l.773.773Z" transform="translate(8.056 16.997)" fill="#707070"/>
    </g>
  </g>
</svg>
