<svg xmlns="http://www.w3.org/2000/svg" width="39.5" height="38.183" viewBox="0 0 39.5 38.183">
  <g id="surface1" transform="translate(0 -0.25)">
    <path id="Path_9427" data-name="Path 9427" d="M9.875,500.25h-7.9A1.975,1.975,0,0,0,0,502.225v13.167a1.975,1.975,0,0,0,1.975,1.975h7.9a1.975,1.975,0,0,0,1.975-1.975V502.225A1.975,1.975,0,0,0,9.875,500.25Zm.658,15.142a.658.658,0,0,1-.658.658h-7.9a.658.658,0,0,1-.658-.658V502.225a.658.658,0,0,1,.658-.658h7.9a.658.658,0,0,1,.658.658Zm0,0" transform="translate(0 -478.933)" fill="#18b85c"/>
    <path id="Path_9428" data-name="Path 9428" d="M666.125,344h-7.9a1.975,1.975,0,0,0-1.975,1.975v19.75a1.975,1.975,0,0,0,1.975,1.975h7.9a1.975,1.975,0,0,0,1.975-1.975v-19.75A1.975,1.975,0,0,0,666.125,344Zm.658,21.725a.658.658,0,0,1-.658.658h-7.9a.658.658,0,0,1-.658-.658v-19.75a.658.658,0,0,1,.658-.658h7.9a.658.658,0,0,1,.658.658Zm0,0" transform="translate(-628.6 -329.267)" fill="#18b85c"/>
    <path id="Path_9429" data-name="Path 9429" d="M338,422.125h-7.9a1.975,1.975,0,0,0-1.975,1.975v16.458a1.975,1.975,0,0,0,1.975,1.975H338a1.975,1.975,0,0,0,1.975-1.975V424.1A1.975,1.975,0,0,0,338,422.125Zm.658,18.433a.658.658,0,0,1-.658.658h-7.9a.658.658,0,0,1-.658-.658V424.1a.658.658,0,0,1,.658-.658H338a.658.658,0,0,1,.658.658Zm0,0" transform="translate(-314.3 -404.1)" fill="#18b85c"/>
    <path id="Path_9430" data-name="Path 9430" d="M54.3,13.882a.658.658,0,0,0,.931,0L66.615,2.5V3.542a.658.658,0,1,0,1.317,0V.908a.658.658,0,0,0-.046-.23c-.009-.022-.019-.044-.03-.066a.655.655,0,0,0-.092-.137.576.576,0,0,0-.22-.167c-.006,0-.011-.008-.017-.01A.654.654,0,0,0,67.3.253c-.01,0-.016,0-.025,0H64.64a.658.658,0,1,0,0,1.317h1.044L54.765,12.486,48.976,6.7a.658.658,0,0,0-.931,0l-6.776,6.776-3.155-3.155a.658.658,0,0,0-.931,0l-5.925,5.925a.658.658,0,1,0,.931.931l5.46-5.46L40.8,14.87a.658.658,0,0,0,.931,0l6.776-6.776Zm0,0" transform="translate(-29.748)" fill="#18b85c"/>
  </g>
</svg>
