<svg id="exam_1_" data-name="exam (1)" xmlns="http://www.w3.org/2000/svg" width="34.986" height="39.774" viewBox="0 0 34.986 39.774">
  <path id="Path_9530" data-name="Path 9530" d="M46.31,41.771H51.3a.636.636,0,1,0,0-1.271H46.31a.636.636,0,0,0,0,1.271Z" transform="translate(-34.838 -29.149)" fill="#18b85c"/>
  <path id="Path_9531" data-name="Path 9531" d="M30.4,55H27.31a.636.636,0,0,0-.636.636v3.087a.636.636,0,0,0,.636.636H30.4a.636.636,0,0,0,.636-.636V55.636A.636.636,0,0,0,30.4,55Zm-.636,3.087H27.945V56.271h1.816Z" transform="translate(-22.739 -38.382)" fill="#18b85c"/>
  <path id="Path_9532" data-name="Path 9532" d="M46.31,60.523h9.444a.636.636,0,1,0,0-1.271H46.31a.636.636,0,0,0,0,1.271Z" transform="translate(-34.838 -41.09)" fill="#18b85c"/>
  <path id="Path_9533" data-name="Path 9533" d="M30.4,73.754H27.31a.636.636,0,0,0-.636.636v3.086a.636.636,0,0,0,.636.636H30.4a.636.636,0,0,0,.636-.636V74.388A.636.636,0,0,0,30.4,73.754Zm-.636,3.087H27.945V75.025h1.816Z" transform="translate(-22.739 -50.324)" fill="#18b85c"/>
  <path id="Path_9534" data-name="Path 9534" d="M46.31,79.271H51.3A.636.636,0,1,0,51.3,78H46.31a.636.636,0,1,0,0,1.271Z" transform="translate(-34.838 -53.028)" fill="#18b85c"/>
  <path id="Path_9535" data-name="Path 9535" d="M30.4,92.506H27.31a.636.636,0,0,0-.636.636v3.087a.636.636,0,0,0,.636.636H30.4a.636.636,0,0,0,.636-.636V93.142a.636.636,0,0,0-.636-.636Zm-.636,3.087H27.945V93.777h1.816Z" transform="translate(-22.739 -62.265)" fill="#18b85c"/>
  <path id="Path_9536" data-name="Path 9536" d="M50.652,18.473a3.167,3.167,0,0,0-5.841-.352l-1.369,2.815-1.509,3.1V15.243a.636.636,0,0,0-.186-.449L36.389,9.436a.636.636,0,0,0-.449-.186H16.477a.636.636,0,0,0-.636.636v38.5a.636.636,0,0,0,.636.636H41.3a.636.636,0,0,0,.636-.636V38.516L50.5,20.893a3.144,3.144,0,0,0,.147-2.419ZM40.8,37.929l-3.319,2.49L37.4,36.27l6.911-14.206,3.411,1.66ZM36.575,11.42l3.188,3.187H36.575ZM17.112,47.752V10.521H35.3v4.722a.636.636,0,0,0,.636.636h4.722V26.652l-4.476,9.2a.635.635,0,0,0-.064.291l.106,4.891H27.313a.636.636,0,0,0,0,1.271h9.444a.626.626,0,0,0,.064-.007c.019,0,.036.007.056.007a.633.633,0,0,0,.381-.127l3.4-2.553v8.129ZM49.364,20.336,48.272,22.58l-3.41-1.659,1.09-2.244a1.9,1.9,0,0,1,3.41,1.659Z" transform="translate(-15.841 -9.25)" fill="#18b85c"/>
  <path id="Path_9537" data-name="Path 9537" d="M31.691,38.814a.636.636,0,0,0-.891.121l-1.235,1.624-.587-.587a.636.636,0,0,0-.9.9l1.1,1.1a.636.636,0,0,0,.449.186h.042a.637.637,0,0,0,.463-.249l1.68-2.2a.636.636,0,0,0-.121-.893Z" transform="translate(-23.514 -27.993)" fill="#18b85c"/>
</svg>
