<svg id="Capa_1" enable-background="new 0 0 512 512" height="512" viewBox="0 0 512 512" width="512" xmlns="http://www.w3.org/2000/svg"><g><path d="m492.995 166.489-31.995-23.996v-112.493c8.284 0 15-6.716 15-15s-6.716-15-15-15h-90c-8.284 0-15 6.716-15 15s6.716 15 15 15v44.992l-88.009-66.006c-15.893-11.904-38.09-11.905-53.989.005l-209.999 157.5c-19.853 14.893-23.891 43.155-9.001 63.004 7.22 9.62 17.752 15.853 29.657 17.55 2.157.308 4.31.46 6.45.459 5.109 0 10.13-.876 14.891-2.564v210.06c0 8.284 6.716 15 15 15h60v7c0 19.299 15.701 35 35 35h170c19.299 0 35-15.701 35-35v-7h60c8.284 0 15-6.716 15-15v-210.068c4.763 1.685 9.803 2.56 14.978 2.56 14.1 0 27.565-6.729 36.022-18 14.888-19.846 10.849-48.108-9.005-63.003zm-91.995-136.489h30v89.992l-30-22.5zm-55 242h-180v-35c0-2.757 2.243-5 5-5h170c2.757 0 5 2.243 5 5zm0 205c0 2.757-2.243 5-5 5h-170c-2.757 0-5-2.243-5-5v-175h180zm30-37v-203c0-19.299-15.701-35-35-35h-170c-19.299 0-35 15.701-35 35v203h-45v-215.003l165-123.753 165 123.753v215.003zm102.002-228.511c-2.863 3.815-7.245 6.004-12.024 6.004-3.26 0-6.365-1.036-8.979-2.996l-191.999-144.003c-5.333-4-12.667-4-18 0l-192.008 144.009c-3.193 2.397-7.136 3.408-11.098 2.842-3.973-.566-7.488-2.647-9.896-5.856-4.961-6.614-3.612-16.035 3.006-21l209.991-157.492c2.652-1.987 5.83-2.979 9.007-2.979 3.175 0 6.349.992 8.996 2.974l209.996 157.497c6.62 4.966 7.969 14.386 3.008 21z"/><circle cx="203.5" cy="337" r="15"/><circle cx="308.5" cy="337" r="15"/><circle cx="256" cy="337" r="15"/><circle cx="203.5" cy="392" r="15"/><circle cx="256" cy="392" r="15"/><circle cx="203.5" cy="444.5" r="15"/><circle cx="256" cy="444.5" r="15"/><path d="m308.5 377c-8.284 0-15 6.716-15 15v52.5c0 8.284 6.716 15 15 15s15-6.716 15-15v-52.5c0-8.284-6.716-15-15-15z"/></g></svg>