<svg id="folder_2_" data-name="folder (2)" xmlns="http://www.w3.org/2000/svg" width="38" height="38" viewBox="0 0 38 38">
  <path id="Path_9518" data-name="Path 9518" d="M36.41,17.1H34.2V13.13a1.733,1.733,0,0,0-1.73-1.73h-.8V0H6.333V1.267h-1.9V2.533h-1.9V6.967h-.8A1.733,1.733,0,0,0,0,8.7V36.365H0A1.617,1.617,0,0,0,1.625,38H29.972a1.606,1.606,0,0,0,1.551-1.148L38,19.094v-.112A1.7,1.7,0,0,0,36.41,17.1ZM32.47,12.667a.464.464,0,0,1,.464.464V17.1H31.667V12.667ZM30.4,1.267V17.1H8.063a1.621,1.621,0,0,0-.427.062c-.011,0-.025,0-.036.005V1.267ZM6.333,2.533v16.2l-.04.11L5.7,20.473V2.533ZM3.8,3.8h.633V23.946L3.8,25.682V3.8ZM1.267,8.7a.464.464,0,0,1,.464-.464h.8V29.1L1.267,32.552ZM30.316,36.47a.356.356,0,0,1-.345.263H1.625a.35.35,0,0,1-.284-.141.343.343,0,0,1-.078-.258l1.27-3.483h0l1.9-5.209h0l1.9-5.209v0l1.224-3.357.043-.117h0l.1-.278.016-.052a.359.359,0,0,1,.345-.264H36.41c.24,0,.3.346.317.519Z" fill="#14bb5b"/>
  <path id="Path_9519" data-name="Path 9519" d="M17.633,16.267h15.2a.633.633,0,1,0,0-1.267h-15.2a.633.633,0,0,0,0,1.267Z" transform="translate(-6.233 -5.5)" fill="#14bb5b"/>
  <path id="Path_9520" data-name="Path 9520" d="M17.633,9.267h6.333a.633.633,0,0,0,0-1.267H17.633a.633.633,0,1,0,0,1.267Z" transform="translate(-6.233 -2.933)" fill="#14bb5b"/>
  <path id="Path_9521" data-name="Path 9521" d="M17.633,23.267h15.2a.633.633,0,1,0,0-1.267h-15.2a.633.633,0,1,0,0,1.267Z" transform="translate(-6.233 -8.067)" fill="#14bb5b"/>
</svg>
