<svg id="Layer_1" data-name="Layer 1" xmlns="http://www.w3.org/2000/svg" viewBox="0 0 416.98 109.21"><defs><style>.cls-1,.cls-2,.cls-4{fill:#27ae60;}.cls-2{stroke:#fff;stroke-miterlimit:10;}.cls-3{fill:#182c61;}.cls-4,.cls-6{fill-rule:evenodd;}.cls-5,.cls-6{fill:#fff;}</style></defs><title>logo</title><path class="cls-1" d="M254.45,52.16a18.83,18.83,0,0,1-6.63.7,10.93,10.93,0,0,1-4.92-1.5,5.88,5.88,0,0,1-2.56-3.29,7,7,0,0,1,.37-4.65,7.94,7.94,0,0,0,4.85,2,30.85,30.85,0,0,0,5.32-.1,7,7,0,0,0,3.27-1,3.2,3.2,0,0,0,1.38-1.78,3.25,3.25,0,0,0-.2-2.13,5.57,5.57,0,0,0-1.51-2,8.18,8.18,0,0,0-2.56-1.47,8.61,8.61,0,0,0-3.33-.49,10.13,10.13,0,0,0-6.8,3.29A11.51,11.51,0,0,0,239,43.15a12.17,12.17,0,0,0-.87,4.33,13,13,0,0,0,.44,3.85A12.22,12.22,0,0,0,240,54.79a10.38,10.38,0,0,0,2.42,2.66,7,7,0,0,0,3.23,1.36,10.69,10.69,0,0,0,5.25-.35,10.92,10.92,0,0,0,4.78-3.08l7.07,3.57a16.59,16.59,0,0,1-6.53,6.12,19.3,19.3,0,0,1-8.62,1.85,18,18,0,0,1-7.91-1.64,16.56,16.56,0,0,1-5.66-4.37,18.43,18.43,0,0,1-3.37-6.19,21.61,21.61,0,0,1-1-7.06A21.35,21.35,0,0,1,231,40.59a18.48,18.48,0,0,1,3.7-6.12A15,15,0,0,1,241,30.21,22.19,22.19,0,0,1,248.39,29a16.37,16.37,0,0,1,7.2,1.47,14.48,14.48,0,0,1,4.92,3.74,11.75,11.75,0,0,1,2.49,5,11,11,0,0,1-.1,5.35,10.3,10.3,0,0,1-2.79,4.65A12.1,12.1,0,0,1,254.45,52.16Z"/><path class="cls-2" d="M234.24,43.7c3.05,1.78,3.78,5.15,5.83,7.86a12.13,12.13,0,0,0,2.74,2.65h0c-4.69-5.38-3.57-11.47-1.38-16.77a26.39,26.39,0,0,1,4.53-7.74c5.19-6.17,4.17-11.43,1.94-19-14.72,4.68-13.28,16.11-11.19,26.77h0c-1.62-4.74-5.6-10-15.31-8.53.23,6.77,2.84,11.58,8.56,13.06A17.82,17.82,0,0,1,234.24,43.7Z"/><path class="cls-1" d="M230.57,30.52a15.83,15.83,0,0,1,7,10"/><path class="cls-1" d="M235.93,27.58s.84,13.76,1.68,15,1.61-5.3,1.61-5.3"/><path class="cls-3" d="M176.12,17.55v9.16H157.95V37.55h18.18a15.94,15.94,0,0,1-.47,3.22,8.67,8.67,0,0,1-1.28,2.87,7,7,0,0,1-2.26,2.06,6.65,6.65,0,0,1-3.4.8H157.95V57.33h18.18v9.16H149V26a8.5,8.5,0,0,1,2.19-6.26,7.5,7.5,0,0,1,5.55-2.2Z"/><path class="cls-3" d="M208.1,62.58a15.74,15.74,0,0,1-5.42,3.67,14.38,14.38,0,0,1-11.61-.35,14.82,14.82,0,0,1-4.88-3.71,18.74,18.74,0,0,1-3.4-5.77,21.28,21.28,0,0,1-1.28-7.62,20,20,0,0,1,1.38-7.55,18.86,18.86,0,0,1,3.7-5.91,16.37,16.37,0,0,1,5.29-3.81,13.52,13.52,0,0,1,6.19-1.19,9.93,9.93,0,0,1,5.29,1.47,8,8,0,0,1,2.76,3.08,7.74,7.74,0,0,1,.81,3.53,6.34,6.34,0,0,1-.64,2.9,5.64,5.64,0,0,0-3.2-2.27,14,14,0,0,0-3.87-.59A8.24,8.24,0,0,0,194.13,40a9.76,9.76,0,0,0-3.1,3.85,12,12,0,0,0-1,5,12.33,12.33,0,0,0,1,5,9.59,9.59,0,0,0,3,3.85,8.19,8.19,0,0,0,5.12,1.54A7.3,7.3,0,0,0,203.49,58a8.77,8.77,0,0,0,2.73-3.18,15.5,15.5,0,0,0,1.45-4.37,26.76,26.76,0,0,0,.44-4.79v-28a9.3,9.3,0,0,1,6.23,2.24,6.49,6.49,0,0,1,2.25,4.89V66.42H208.1Z"/><path class="cls-1" d="M297.65,43.35a6.63,6.63,0,0,0-2.05-3.29,10.08,10.08,0,0,0-3.54-2,13.08,13.08,0,0,0-4.31-.63,11.07,11.07,0,0,0-4.34.94,10.2,10.2,0,0,0-3.6,2.69,10.07,10.07,0,0,0-2.16,4.51,12.86,12.86,0,0,0-.13,4.54,10.19,10.19,0,0,0,1.55,4.16,9.51,9.51,0,0,0,3.27,3,9.71,9.71,0,0,0,4.95,1.19,9.92,9.92,0,0,0,8.48-4.12l6.4,4.82q-5.12,7.48-14.75,7.48a18,18,0,0,1-8.72-2,17.46,17.46,0,0,1-6-5.17,18.34,18.34,0,0,1-3.1-7.13,21.36,21.36,0,0,1-.17-7.83,19.87,19.87,0,0,1,2.79-7.34,16.69,16.69,0,0,1,5.86-5.63,18.54,18.54,0,0,1,12.19-2.31,12.9,12.9,0,0,1,6.5,2.59,9.45,9.45,0,0,1,3.06,4.23,7,7,0,0,1,.1,4.33A4.57,4.57,0,0,1,297.65,43.35Z"/><path class="cls-1" d="M324.44,29.09a17.14,17.14,0,0,1,9.46,2.66,19.28,19.28,0,0,1,9,15.94,19,19,0,0,1-2.46,9.86,18.06,18.06,0,0,1-5.79,6.36,18.44,18.44,0,0,1-7.61,3,17.91,17.91,0,0,1-8.11-.7,17.37,17.37,0,0,1-7.3-4.65,19.31,19.31,0,0,1-4.85-8.88,19.64,19.64,0,0,1,.2-10.07,7.55,7.55,0,0,1,2-3.36,8.74,8.74,0,0,1,3.13-2,9.61,9.61,0,0,1,3.64-.56,9.21,9.21,0,0,1,3.5.8,7.44,7.44,0,0,1,2.73,2.1,6.13,6.13,0,0,1,1.31,3.32,4.07,4.07,0,0,0-2.42-.8,5.66,5.66,0,0,0-2.73.63,5.83,5.83,0,0,0-2.22,2,6,6,0,0,0-.91,3.39,10.94,10.94,0,0,0,1.41,5.8,9.26,9.26,0,0,0,8.11,4.62,9.21,9.21,0,0,0,4.58-1.19,9.64,9.64,0,0,0,3.54-3.53A11.12,11.12,0,0,0,334.07,48a11.67,11.67,0,0,0-.94-4.82,9.79,9.79,0,0,0-2.52-3.46,8.84,8.84,0,0,0-3.67-1.89,9.84,9.84,0,0,0-4.44,0,7.42,7.42,0,0,0-2.46-2,10.11,10.11,0,0,0-3.13-1,10.23,10.23,0,0,0-3.37.07,9.27,9.27,0,0,0-3.16,1.22,19.54,19.54,0,0,1,6.26-5.21A16.7,16.7,0,0,1,324.44,29.09Z"/><path class="cls-3" d="M348,30.89h3.1q0-1.82,0-3.6a26.62,26.62,0,0,1,.13-3.36,17.81,17.81,0,0,1,.54-2.9,6.88,6.88,0,0,1,1.18-2.38,6.22,6.22,0,0,1,2.52-1.85,12.67,12.67,0,0,1,4.14-.8,13.58,13.58,0,0,1,5,.77,8.07,8.07,0,0,1,3.53,2.34,5.12,5.12,0,0,1,1.21,3.46,6.64,6.64,0,0,1-1.92,4.13,4.3,4.3,0,0,0-1.72-2.24,5,5,0,0,0-2.56-.91,3.52,3.52,0,0,0-2.32.66,2.87,2.87,0,0,0-1,2.48v4.19h8.62a8.18,8.18,0,0,1-1.89,5.63,6,6,0,0,1-4.71,2.13h-2V67.18h-8.75V38.65H348Z"/><path class="cls-3" d="M385.85,80.74a19.64,19.64,0,0,1-6.09-.91,11.58,11.58,0,0,1-4.61-2.69,9.05,9.05,0,0,1-2.46-4.51,12.57,12.57,0,0,1,.37-6.29A9.35,9.35,0,0,0,375.18,69,12.66,12.66,0,0,0,378.11,71a15.56,15.56,0,0,0,3.37,1.15,13.42,13.42,0,0,0,3.43.32q4.85-.21,7.41-2.62t2.56-7.52a5.37,5.37,0,0,1-1.62,2.31,11.27,11.27,0,0,1-2.56,1.64,14.72,14.72,0,0,1-2.89,1,15.88,15.88,0,0,1-2.69.42,13.39,13.39,0,0,1-5-.7,10.91,10.91,0,0,1-4.51-3q-3-3.22-3-9.37V30.89h8.55q0,1.19,0,3.18t0,4.4v5q0,2.55.07,4.86t.2,4.09a18.11,18.11,0,0,0,.34,2.62,5.69,5.69,0,0,0,2,3.36,5.25,5.25,0,0,0,3.23,1.12,6,6,0,0,0,2.15-.38A5.61,5.61,0,0,0,390.8,58,5.85,5.85,0,0,0,392,56.45a4,4,0,0,0,.47-1.92A3.52,3.52,0,0,1,394.88,57V30.89h8.68V62.78q0,8.25-4.48,13.11T385.85,80.74Z"/><path class="cls-3" d="M155.64,87.73a2.92,2.92,0,0,0-.79-1,2.61,2.61,0,0,0-.92-.48,2,2,0,0,0-.9,0,1.76,1.76,0,0,0-.71.3A.89.89,0,0,0,152,87a.72.72,0,0,0,.18.62,6.24,6.24,0,0,0,1,.92l1.28,1.07q.66.56,1.26,1.16A4.24,4.24,0,0,1,156.5,92a3.52,3.52,0,0,1,.3,1.66,3.35,3.35,0,0,1-.5,1.59A3.47,3.47,0,0,1,155,96.46a4,4,0,0,1-2,.47,4.46,4.46,0,0,1-1.38-.22,5.2,5.2,0,0,1-1.28-.62,6,6,0,0,1-1.1-.94,5.24,5.24,0,0,1-.84-1.21l1.85-1.36a3.46,3.46,0,0,0,.4.65,4.73,4.73,0,0,0,.55.59,4.34,4.34,0,0,0,.63.48,2.56,2.56,0,0,0,.63.29,2.06,2.06,0,0,0,1,0,1.36,1.36,0,0,0,.73-.4,1,1,0,0,0,.26-.72,1.57,1.57,0,0,0-.41-.94,7.36,7.36,0,0,0-1.18-1.13q-.74-.58-1.46-1.23a8.29,8.29,0,0,1-1.25-1.41,2.83,2.83,0,0,1-.53-1.66,2.87,2.87,0,0,1,.28-1.27,3.06,3.06,0,0,1,.75-1,3.49,3.49,0,0,1,1.08-.63A3.67,3.67,0,0,1,153,84a5.08,5.08,0,0,1,1.58.24,3,3,0,0,1,1.19.68,2.13,2.13,0,0,1,.51.67,1.73,1.73,0,0,1,.18.75,1.5,1.5,0,0,1-.2.74A1.87,1.87,0,0,1,155.64,87.73Z"/><path class="cls-3" d="M165.41,90.87a1.66,1.66,0,0,0-.54-.83,2.68,2.68,0,0,0-.92-.5,3.54,3.54,0,0,0-1.13-.16,3,3,0,0,0-1.14.24,2.67,2.67,0,0,0-.94.68,2.49,2.49,0,0,0-.56,1.14,3.11,3.11,0,0,0,0,1.14,2.5,2.5,0,0,0,.4,1,2.46,2.46,0,0,0,.85.77,2.91,2.91,0,0,0,3.51-.74l1.67,1.22a4.44,4.44,0,0,1-3.86,1.88,4.86,4.86,0,0,1-2.28-.5,4.47,4.47,0,0,1-2.37-3.1,5.19,5.19,0,0,1,0-2,4.9,4.9,0,0,1,.73-1.85,4.3,4.3,0,0,1,1.53-1.42,5,5,0,0,1,1.54-.55,5,5,0,0,1,1.65,0,3.45,3.45,0,0,1,1.7.65A2.4,2.4,0,0,1,166,89a1.71,1.71,0,0,1,0,1.09A1.16,1.16,0,0,1,165.41,90.87Z"/><path class="cls-3" d="M170.22,84.28v4.46a1.49,1.49,0,0,1,.42-.53,2.7,2.7,0,0,1,.63-.38,4.33,4.33,0,0,1,.7-.24,3.77,3.77,0,0,1,.68-.11,3.43,3.43,0,0,1,1.29.18,2.88,2.88,0,0,1,1.16.76,3.23,3.23,0,0,1,.78,2.33v5.86h-2.2q0-.28,0-.78t0-1.09V93.5q0-.64,0-1.21t-.05-1a4.5,4.5,0,0,0-.09-.65,1.44,1.44,0,0,0-.51-.81,1.33,1.33,0,0,0-.83-.28,1.27,1.27,0,0,0-.92.32,1.1,1.1,0,0,0-.33.83,1,1,0,0,1-.41-.26,1.18,1.18,0,0,1-.31-.46v6.66H168V86.08a1.62,1.62,0,0,1,.6-1.33A2.43,2.43,0,0,1,170.22,84.28Z"/><path class="cls-3" d="M182.06,87.28a4.61,4.61,0,0,1,2.47.67,5,5,0,0,1,1.7,1.71,4.78,4.78,0,0,1,.66,2.31A4.79,4.79,0,0,1,184.73,96a4.92,4.92,0,0,1-2,.75,4.86,4.86,0,0,1-2.12-.18,4.56,4.56,0,0,1-1.91-1.17,4.82,4.82,0,0,1-1.22-4.77,1.9,1.9,0,0,1,.52-.84,2.31,2.31,0,0,1,.82-.49,2.6,2.6,0,0,1,1-.14,2.49,2.49,0,0,1,.92.2,1.94,1.94,0,0,1,.71.53,1.51,1.51,0,0,1,.34.84,1.09,1.09,0,0,0-.63-.2,1.52,1.52,0,0,0-.71.16,1.5,1.5,0,0,0-.58.51,1.47,1.47,0,0,0-.24.85,2.68,2.68,0,0,0,.37,1.46,2.43,2.43,0,0,0,.92.87,2.55,2.55,0,0,0,1.2.29,2.44,2.44,0,0,0,2.12-1.19,2.72,2.72,0,0,0,.37-1.47,2.84,2.84,0,0,0-.25-1.21,2.48,2.48,0,0,0-.66-.87,2.35,2.35,0,0,0-1-.48,2.68,2.68,0,0,0-1.16,0,1.93,1.93,0,0,0-.64-.5,2.72,2.72,0,0,0-.82-.25,2.77,2.77,0,0,0-.88,0,2.48,2.48,0,0,0-.83.31A5.08,5.08,0,0,1,180,87.74,4.5,4.5,0,0,1,182.06,87.28Z"/><path class="cls-3" d="M192.73,87.28a4.61,4.61,0,0,1,2.47.67,5,5,0,0,1,1.7,1.71,4.78,4.78,0,0,1,.66,2.31A4.79,4.79,0,0,1,195.41,96a4.92,4.92,0,0,1-2,.75,4.86,4.86,0,0,1-2.12-.18,4.56,4.56,0,0,1-1.91-1.17,4.82,4.82,0,0,1-1.22-4.77,1.9,1.9,0,0,1,.52-.84,2.31,2.31,0,0,1,.82-.49,2.6,2.6,0,0,1,1-.14,2.49,2.49,0,0,1,.92.2,1.94,1.94,0,0,1,.71.53,1.51,1.51,0,0,1,.34.84,1.09,1.09,0,0,0-.63-.2,1.52,1.52,0,0,0-.71.16,1.5,1.5,0,0,0-.58.51,1.47,1.47,0,0,0-.24.85,2.68,2.68,0,0,0,.37,1.46,2.43,2.43,0,0,0,.92.87,2.55,2.55,0,0,0,1.2.29,2.44,2.44,0,0,0,2.12-1.19,2.72,2.72,0,0,0,.37-1.47,2.84,2.84,0,0,0-.25-1.21,2.48,2.48,0,0,0-.66-.87,2.35,2.35,0,0,0-1-.48,2.68,2.68,0,0,0-1.16,0,1.93,1.93,0,0,0-.64-.5,2.72,2.72,0,0,0-.82-.25,2.77,2.77,0,0,0-.88,0,2.48,2.48,0,0,0-.83.31,5.08,5.08,0,0,1,1.64-1.31A4.5,4.5,0,0,1,192.73,87.28Z"/><path class="cls-3" d="M201.2,84.28V96.61H199V86.08a1.62,1.62,0,0,1,.6-1.33A2.43,2.43,0,0,1,201.2,84.28Z"/><path class="cls-3" d="M210.41,84.26l2.87,8.61,2.89-8.61h3.08V96.59h-2.34V88.84L215,94.55c-.06.18-.11.36-.15.54a2.86,2.86,0,0,0-.07.53,1.27,1.27,0,0,0,.07.48.72.72,0,0,0,.29.36,2.33,2.33,0,0,1-1,.25,2.57,2.57,0,0,1-.94-.13,1.93,1.93,0,0,1-.57-.34,2.69,2.69,0,0,1-.45-.49,3.06,3.06,0,0,1-.33-.58q-.13-.31-.24-.61L209.71,89v7.59h-2.34V86.11a1.75,1.75,0,0,1,.54-1.36,2.09,2.09,0,0,1,1.47-.49Z"/><path class="cls-3" d="M227.81,95.61a4.25,4.25,0,0,1-1.45,1,4,4,0,0,1-1.58.27,4.08,4.08,0,0,1-1.54-.36,4,4,0,0,1-1.32-1A4.8,4.8,0,0,1,221,94a5.36,5.36,0,0,1-.34-2,5.08,5.08,0,0,1,.37-2,4.7,4.7,0,0,1,1-1.53,4.46,4.46,0,0,1,1.43-1,3.79,3.79,0,0,1,1.67-.31,2.59,2.59,0,0,1,1.36.38,2.2,2.2,0,0,1,.75.8,2.08,2.08,0,0,1,.25.92,1.46,1.46,0,0,1-.15.75,1.45,1.45,0,0,0-.85-.6,3.89,3.89,0,0,0-1.06-.15,2.24,2.24,0,0,0-1.36.4,2.56,2.56,0,0,0-.83,1,3.13,3.13,0,0,0-.29,1.3,3,3,0,0,0,.26,1.3,2.46,2.46,0,0,0,.83,1,2.31,2.31,0,0,0,1.38.4,2,2,0,0,0,1.16-.32,2.35,2.35,0,0,0,.73-.82,3.78,3.78,0,0,0,.39-1.13,6.89,6.89,0,0,0,.11-1.24V87.49h2.29v9.12h-2.29Z"/><path class="cls-3" d="M234.13,88.54a1.44,1.44,0,0,1,.43-.55,3.07,3.07,0,0,1,.64-.39,4,4,0,0,1,.72-.25,3.92,3.92,0,0,1,.69-.11,3.52,3.52,0,0,1,1.32.18,3.1,3.1,0,0,1,1.2.77,3.3,3.3,0,0,1,.79,2.38v6h-2.25q0-.3,0-.81t0-1.12V93.42q0-.65,0-1.23t-.05-1a4.46,4.46,0,0,0-.09-.67,1.42,1.42,0,0,0-.54-.85,1.45,1.45,0,0,0-.85-.28,1.28,1.28,0,0,0-.93.33,1.14,1.14,0,0,0-.33.85,1.07,1.07,0,0,1-.42-.29,1.57,1.57,0,0,1-.32-.47v6.83h-2.27V87.49h2.27Z"/><path class="cls-3" d="M248.49,95.61a4.25,4.25,0,0,1-1.45,1,4,4,0,0,1-1.58.27,4.08,4.08,0,0,1-1.54-.36,4,4,0,0,1-1.32-1,4.8,4.8,0,0,1-.92-1.5,5.36,5.36,0,0,1-.34-2,5.08,5.08,0,0,1,.37-2,4.7,4.7,0,0,1,1-1.53,4.46,4.46,0,0,1,1.43-1,3.79,3.79,0,0,1,1.67-.31,2.59,2.59,0,0,1,1.36.38,2.2,2.2,0,0,1,.75.8,2.08,2.08,0,0,1,.25.92,1.46,1.46,0,0,1-.15.75,1.45,1.45,0,0,0-.85-.6,3.89,3.89,0,0,0-1.06-.15,2.24,2.24,0,0,0-1.36.4,2.56,2.56,0,0,0-.83,1,3.13,3.13,0,0,0-.29,1.3,3,3,0,0,0,.26,1.3,2.46,2.46,0,0,0,.83,1,2.31,2.31,0,0,0,1.38.4,2,2,0,0,0,1.16-.32,2.35,2.35,0,0,0,.73-.82,3.78,3.78,0,0,0,.39-1.13,6.89,6.89,0,0,0,.11-1.24V87.49h2.29v9.12h-2.29Z"/><path class="cls-3" d="M257,100.15a6.74,6.74,0,0,1-1.7-.21,4,4,0,0,1-1.4-.64A2.37,2.37,0,0,1,253,98.2a2.48,2.48,0,0,1,0-1.58,3,3,0,0,0,.73.59,5.84,5.84,0,0,0,1,.46,7,7,0,0,0,1,.29,4,4,0,0,0,1,.09,3.62,3.62,0,0,0,1.32-.27,2.12,2.12,0,0,0,.8-.59,2,2,0,0,0,.4-.82,4.27,4.27,0,0,0,.11-1,4.05,4.05,0,0,1-1.45,1,4.11,4.11,0,0,1-1.58.26,4,4,0,0,1-1.54-.37,4.14,4.14,0,0,1-1.32-1,4.65,4.65,0,0,1-.92-1.5,5.38,5.38,0,0,1-.34-2,4.82,4.82,0,0,1,.37-1.92A4.34,4.34,0,0,1,255,87.54a4,4,0,0,1,1.67-.28,2.59,2.59,0,0,1,1.36.38,2.23,2.23,0,0,1,.75.79,2,2,0,0,1,.25.92,1.49,1.49,0,0,1-.15.76,1.58,1.58,0,0,0-.38-.36,2,2,0,0,0-.48-.24,2.65,2.65,0,0,0-.53-.12,4.07,4.07,0,0,0-.52,0,2.28,2.28,0,0,0-1.36.39,2.53,2.53,0,0,0-.83,1,2.86,2.86,0,0,0-.29,1.24,2.75,2.75,0,0,0,.26,1.24,2.44,2.44,0,0,0,.83,1,2.35,2.35,0,0,0,1.38.39,2.18,2.18,0,0,0,1.16-.28,2.12,2.12,0,0,0,.73-.75,3.35,3.35,0,0,0,.39-1.06,6.33,6.33,0,0,0,.11-1.21V87.49h2.29v8.1a5.62,5.62,0,0,1-.3,1.88A3.76,3.76,0,0,1,259,99.83,5.87,5.87,0,0,1,257,100.15Z"/><path class="cls-3" d="M269.6,93.09a5.1,5.1,0,0,1-1.74.18,2.94,2.94,0,0,1-1.29-.38,1.49,1.49,0,0,1-.67-.83,1.68,1.68,0,0,1,.1-1.17,2.12,2.12,0,0,0,1.27.5,8.42,8.42,0,0,0,1.39,0,1.86,1.86,0,0,0,.85-.25.81.81,0,0,0,.36-.45.79.79,0,0,0-.05-.54,1.4,1.4,0,0,0-.4-.51,2.14,2.14,0,0,0-.67-.37,2.35,2.35,0,0,0-.87-.12,2.76,2.76,0,0,0-1,.25,2.63,2.63,0,0,0-.81.58,2.88,2.88,0,0,0-.56.86,3,3,0,0,0-.23,1.09,3.18,3.18,0,0,0,.12,1,3,3,0,0,0,.4.87,2.66,2.66,0,0,0,.63.67,1.85,1.85,0,0,0,.84.34,2.93,2.93,0,0,0,2.62-.86l1.85.9a4.28,4.28,0,0,1-1.71,1.54,5.21,5.21,0,0,1-2.25.47,4.87,4.87,0,0,1-2.07-.41,4.33,4.33,0,0,1-1.48-1.1,4.57,4.57,0,0,1-.88-1.56,5.21,5.21,0,0,1,.08-3.56,4.61,4.61,0,0,1,1-1.54,3.94,3.94,0,0,1,1.65-1.08,6,6,0,0,1,1.93-.32,4.41,4.41,0,0,1,1.88.37,3.78,3.78,0,0,1,1.29.94,2.92,2.92,0,0,1,.65,1.27,2.68,2.68,0,0,1,0,1.35,2.58,2.58,0,0,1-.73,1.17A3.21,3.21,0,0,1,269.6,93.09Z"/><path class="cls-3" d="M275.71,88.54a1.47,1.47,0,0,1,.42-.55,2.63,2.63,0,0,1,.63-.38,4.54,4.54,0,0,1,.72-.24,3.92,3.92,0,0,1,.69-.11,3.34,3.34,0,0,1,1.33.17,3,3,0,0,1,1.19.77,4.11,4.11,0,0,1,.29.36,1.88,1.88,0,0,1,.22.41,1.33,1.33,0,0,1,.32-.7,2.49,2.49,0,0,1,.64-.53,3.5,3.5,0,0,1,.82-.34,3.79,3.79,0,0,1,.86-.14,3.4,3.4,0,0,1,1.35.17,3.23,3.23,0,0,1,1.22.77,3.3,3.3,0,0,1,.79,2.38v6h-2.29V95.8q0-.51,0-1.12t0-1.26q0-.65,0-1.23t0-1c0-.3,0-.53-.06-.67a1.27,1.27,0,0,0-1.29-1.2,1.43,1.43,0,0,0-1,.35,1.11,1.11,0,0,0-.4.9,1,1,0,0,1-.32-.18,1.55,1.55,0,0,1-.28-.31,2.22,2.22,0,0,1,0,.27v6.3h-2.25q0-.3,0-.81t0-1.12V93.42q0-.65,0-1.23t-.05-1a4.46,4.46,0,0,0-.09-.67,1.44,1.44,0,0,0-.53-.85,1.41,1.41,0,0,0-.85-.28,1.3,1.3,0,0,0-1,.33,1.14,1.14,0,0,0-.33.85,1.07,1.07,0,0,1-.42-.29,1.31,1.31,0,0,1-.3-.47v6.83h-2.29V87.5h2.29Z"/><path class="cls-3" d="M295.19,93.09a5.1,5.1,0,0,1-1.74.18,2.94,2.94,0,0,1-1.29-.38,1.49,1.49,0,0,1-.67-.83,1.68,1.68,0,0,1,.1-1.17,2.12,2.12,0,0,0,1.27.5,8.42,8.42,0,0,0,1.39,0,1.86,1.86,0,0,0,.85-.25.81.81,0,0,0,.36-.45.79.79,0,0,0-.05-.54,1.4,1.4,0,0,0-.4-.51,2.14,2.14,0,0,0-.67-.37,2.35,2.35,0,0,0-.87-.12,2.76,2.76,0,0,0-1,.25,2.63,2.63,0,0,0-.81.58,2.88,2.88,0,0,0-.56.86,3,3,0,0,0-.23,1.09,3.18,3.18,0,0,0,.12,1,3,3,0,0,0,.4.87,2.66,2.66,0,0,0,.63.67,1.85,1.85,0,0,0,.84.34,2.93,2.93,0,0,0,2.62-.86l1.85.9a4.28,4.28,0,0,1-1.71,1.54,5.21,5.21,0,0,1-2.25.47,4.87,4.87,0,0,1-2.07-.41,4.33,4.33,0,0,1-1.48-1.1,4.57,4.57,0,0,1-.88-1.56,5.21,5.21,0,0,1,.08-3.56,4.61,4.61,0,0,1,1-1.54,3.94,3.94,0,0,1,1.65-1.08,6,6,0,0,1,1.93-.32,4.41,4.41,0,0,1,1.88.37,3.78,3.78,0,0,1,1.29.94,2.92,2.92,0,0,1,.65,1.27,2.68,2.68,0,0,1,0,1.35,2.58,2.58,0,0,1-.73,1.17A3.21,3.21,0,0,1,295.19,93.09Z"/><path class="cls-3" d="M301.28,88.54a1.44,1.44,0,0,1,.43-.55,3.07,3.07,0,0,1,.64-.39,4,4,0,0,1,.72-.25,3.92,3.92,0,0,1,.69-.11,3.52,3.52,0,0,1,1.32.18,3.1,3.1,0,0,1,1.2.77,3.3,3.3,0,0,1,.79,2.38v6h-2.25q0-.3,0-.81t0-1.12V93.42q0-.65,0-1.23t-.05-1a4.46,4.46,0,0,0-.09-.67,1.42,1.42,0,0,0-.54-.85,1.45,1.45,0,0,0-.85-.28,1.28,1.28,0,0,0-.93.33,1.14,1.14,0,0,0-.33.85,1.07,1.07,0,0,1-.42-.29,1.57,1.57,0,0,1-.32-.47v6.83H299V87.49h2.27Z"/><path class="cls-3" d="M309.79,86.08a1.75,1.75,0,0,1,.18-.84,1.55,1.55,0,0,1,.49-.55,2.14,2.14,0,0,1,.71-.31,3.56,3.56,0,0,1,.83-.1v3.28h2a3.79,3.79,0,0,1-.06.69,1.69,1.69,0,0,1-.24.61,1.31,1.31,0,0,1-.48.44,1.58,1.58,0,0,1-.77.17H312v5a.41.41,0,0,0,.21.4,1,1,0,0,0,.49.11,1.52,1.52,0,0,0,.56-.13.84.84,0,0,0,.41-.33,1.29,1.29,0,0,1,0,1,1.64,1.64,0,0,1-.63.72,2.48,2.48,0,0,1-1,.35,2.34,2.34,0,0,1-1.07-.09,1.84,1.84,0,0,1-.85-.6,1.8,1.8,0,0,1-.35-1.17V89.46h-1.13v-1.9h1.13Z"/><path class="cls-1" d="M327,84.28v2.31h-4.75v2.73H327a3.86,3.86,0,0,1-.12.81,2.15,2.15,0,0,1-.33.72,1.72,1.72,0,0,1-1.48.72h-2.82V94.3H327v2.31h-7.1V86.41a2.09,2.09,0,0,1,.57-1.58,2,2,0,0,1,1.45-.55Z"/><path class="cls-1" d="M335.82,90.87a1.66,1.66,0,0,0-.54-.83,2.68,2.68,0,0,0-.92-.5,3.55,3.55,0,0,0-1.13-.16,3,3,0,0,0-1.14.24,2.67,2.67,0,0,0-.94.68,2.51,2.51,0,0,0-.56,1.14,3.13,3.13,0,0,0,0,1.14,2.51,2.51,0,0,0,.41,1,2.46,2.46,0,0,0,.85.77,2.91,2.91,0,0,0,3.51-.74L337,94.87a4.44,4.44,0,0,1-3.86,1.88,4.86,4.86,0,0,1-2.28-.5,4.48,4.48,0,0,1-2.37-3.1,5.2,5.2,0,0,1,0-2,4.89,4.89,0,0,1,.73-1.85,4.29,4.29,0,0,1,1.53-1.42,4.94,4.94,0,0,1,1.54-.55,5,5,0,0,1,1.65,0,3.45,3.45,0,0,1,1.7.65,2.4,2.4,0,0,1,.8,1.07,1.71,1.71,0,0,1,0,1.09A1.16,1.16,0,0,1,335.82,90.87Z"/><path class="cls-1" d="M342.83,87.28a4.61,4.61,0,0,1,2.47.67,5,5,0,0,1,1.7,1.71,4.78,4.78,0,0,1,.66,2.31A4.79,4.79,0,0,1,345.51,96a4.92,4.92,0,0,1-2,.75,4.86,4.86,0,0,1-2.12-.18,4.56,4.56,0,0,1-1.91-1.17,4.82,4.82,0,0,1-1.22-4.77,1.9,1.9,0,0,1,.52-.84,2.31,2.31,0,0,1,.82-.49,2.6,2.6,0,0,1,1-.14,2.49,2.49,0,0,1,.92.2,1.94,1.94,0,0,1,.71.53,1.51,1.51,0,0,1,.34.84,1.09,1.09,0,0,0-.63-.2,1.52,1.52,0,0,0-.71.16,1.5,1.5,0,0,0-.58.51,1.47,1.47,0,0,0-.24.85,2.68,2.68,0,0,0,.37,1.46,2.43,2.43,0,0,0,.92.87,2.55,2.55,0,0,0,1.2.29A2.44,2.44,0,0,0,345,93.52a2.72,2.72,0,0,0,.37-1.47,2.84,2.84,0,0,0-.25-1.21,2.48,2.48,0,0,0-.66-.87,2.35,2.35,0,0,0-1-.48,2.68,2.68,0,0,0-1.16,0,1.93,1.93,0,0,0-.64-.5,2.72,2.72,0,0,0-.82-.25,2.77,2.77,0,0,0-.88,0,2.48,2.48,0,0,0-.83.31,5.08,5.08,0,0,1,1.64-1.31A4.5,4.5,0,0,1,342.83,87.28Z"/><path class="cls-1" d="M353.61,90.29a1.37,1.37,0,0,0-.39-.54,1.87,1.87,0,0,0-1.1-.42,1.12,1.12,0,0,0-.45.06.62.62,0,0,0-.41.36.46.46,0,0,0,.1.48,1.65,1.65,0,0,0,.5.34l.77.37q.42.2.87.46a4.18,4.18,0,0,1,.82.61,3,3,0,0,1,.61.83,2.49,2.49,0,0,1,.24,1.13,2.59,2.59,0,0,1-.33,1.33,2.68,2.68,0,0,1-.89.92,3.53,3.53,0,0,1-1.25.48,4.21,4.21,0,0,1-1.41,0,4,4,0,0,1-1.38-.48,3.78,3.78,0,0,1-1.16-1l1.41-1.51a2.76,2.76,0,0,0,.92.76,2.49,2.49,0,0,0,.9.25,1.29,1.29,0,0,0,.7-.12.62.62,0,0,0,.34-.41.71.71,0,0,0-.15-.56A2.13,2.13,0,0,0,352,93q-.56-.28-1.1-.58a5.28,5.28,0,0,1-1-.67,3.2,3.2,0,0,1-.67-.83,2.17,2.17,0,0,1-.25-1.07,2.35,2.35,0,0,1,.26-1.13,2.53,2.53,0,0,1,.71-.83,3,3,0,0,1,1-.49,3.86,3.86,0,0,1,1.16-.14,2.85,2.85,0,0,1,1.56.45,1.66,1.66,0,0,1,.67.9,1.41,1.41,0,0,1-.09,1A1.34,1.34,0,0,1,353.61,90.29Z"/><path class="cls-1" d="M359.81,100a5.32,5.32,0,0,1-1.59-.23,3.05,3.05,0,0,1-1.21-.68,2.26,2.26,0,0,1-.64-1.14,3,3,0,0,1,.1-1.58,2.35,2.35,0,0,0,.55.68,3.36,3.36,0,0,0,.77.48,4.19,4.19,0,0,0,.88.29,3.68,3.68,0,0,0,.9.08,3,3,0,0,0,1.94-.66,2.44,2.44,0,0,0,.67-1.89,1.36,1.36,0,0,1-.42.58,3,3,0,0,1-.67.41,4,4,0,0,1-.76.25,4.3,4.3,0,0,1-.7.11,3.64,3.64,0,0,1-1.32-.18,2.85,2.85,0,0,1-1.18-.76,3.24,3.24,0,0,1-.79-2.36v-6h2.24c0,.2,0,.47,0,.8s0,.7,0,1.11v1.25c0,.43,0,.84,0,1.22s0,.73.05,1a4.42,4.42,0,0,0,.09.66,1.42,1.42,0,0,0,.53.85,1.41,1.41,0,0,0,.84.28,1.63,1.63,0,0,0,.56-.1,1.5,1.5,0,0,0,.79-.67,1,1,0,0,0,.12-.48.9.9,0,0,1,.62.62V87.47h2.27v8a4.17,4.17,0,0,1-4.63,4.53Z"/><path class="cls-1" d="M370.73,90.29a1.37,1.37,0,0,0-.39-.54,1.87,1.87,0,0,0-1.1-.42,1.12,1.12,0,0,0-.45.06.62.62,0,0,0-.41.36.46.46,0,0,0,.1.48,1.65,1.65,0,0,0,.5.34l.77.37q.42.2.87.46a4.18,4.18,0,0,1,.82.61,3,3,0,0,1,.61.83,2.49,2.49,0,0,1,.24,1.13,2.59,2.59,0,0,1-.33,1.33,2.68,2.68,0,0,1-.89.92,3.53,3.53,0,0,1-1.25.48,4.21,4.21,0,0,1-1.41,0,4,4,0,0,1-1.38-.48,3.78,3.78,0,0,1-1.16-1l1.41-1.51a2.76,2.76,0,0,0,.92.76,2.49,2.49,0,0,0,.9.25,1.29,1.29,0,0,0,.7-.12.62.62,0,0,0,.34-.41.71.71,0,0,0-.15-.56,2.13,2.13,0,0,0-.81-.61q-.56-.28-1.1-.58a5.28,5.28,0,0,1-1-.67,3.2,3.2,0,0,1-.67-.83,2.17,2.17,0,0,1-.25-1.07,2.35,2.35,0,0,1,.26-1.13,2.53,2.53,0,0,1,.71-.83,3,3,0,0,1,1-.49,3.86,3.86,0,0,1,1.16-.14,2.85,2.85,0,0,1,1.56.45,1.66,1.66,0,0,1,.67.9,1.41,1.41,0,0,1-.09,1A1.34,1.34,0,0,1,370.73,90.29Z"/><path class="cls-1" d="M374.64,86.08a1.75,1.75,0,0,1,.18-.84,1.55,1.55,0,0,1,.49-.55,2.14,2.14,0,0,1,.71-.31,3.56,3.56,0,0,1,.83-.1v3.28h2a3.79,3.79,0,0,1-.06.69,1.69,1.69,0,0,1-.24.61,1.31,1.31,0,0,1-.48.44,1.58,1.58,0,0,1-.77.17h-.49v5a.41.41,0,0,0,.21.4,1,1,0,0,0,.49.11,1.52,1.52,0,0,0,.56-.13.84.84,0,0,0,.41-.33,1.29,1.29,0,0,1,0,1,1.64,1.64,0,0,1-.63.72,2.48,2.48,0,0,1-1,.35,2.34,2.34,0,0,1-1.07-.09,1.84,1.84,0,0,1-.85-.6,1.8,1.8,0,0,1-.35-1.17V89.46h-1.13v-1.9h1.13Z"/><path class="cls-1" d="M386.52,93.09a5.1,5.1,0,0,1-1.74.18,2.94,2.94,0,0,1-1.29-.38,1.49,1.49,0,0,1-.67-.83,1.68,1.68,0,0,1,.1-1.17,2.12,2.12,0,0,0,1.27.5,8.42,8.42,0,0,0,1.39,0,1.86,1.86,0,0,0,.85-.25.81.81,0,0,0,.36-.45.79.79,0,0,0-.05-.54,1.4,1.4,0,0,0-.4-.51,2.14,2.14,0,0,0-.67-.37,2.35,2.35,0,0,0-.87-.12,2.76,2.76,0,0,0-1,.25A2.63,2.63,0,0,0,383,90a2.88,2.88,0,0,0-.56.86,3,3,0,0,0-.23,1.09,3.18,3.18,0,0,0,.12,1,3,3,0,0,0,.4.87,2.66,2.66,0,0,0,.63.67,1.85,1.85,0,0,0,.84.34,2.93,2.93,0,0,0,2.62-.86l1.85.9A4.28,4.28,0,0,1,387,96.34a5.21,5.21,0,0,1-2.25.47,4.87,4.87,0,0,1-2.07-.41,4.33,4.33,0,0,1-1.48-1.1,4.57,4.57,0,0,1-.88-1.56,5.21,5.21,0,0,1,.08-3.56,4.61,4.61,0,0,1,1-1.54A3.94,3.94,0,0,1,383,87.56a6,6,0,0,1,1.93-.32,4.41,4.41,0,0,1,1.88.37,3.78,3.78,0,0,1,1.29.94,2.92,2.92,0,0,1,.65,1.27,2.68,2.68,0,0,1,0,1.35,2.58,2.58,0,0,1-.73,1.17A3.21,3.21,0,0,1,386.52,93.09Z"/><path class="cls-1" d="M392.63,88.54a1.47,1.47,0,0,1,.42-.55,2.63,2.63,0,0,1,.63-.38,4.54,4.54,0,0,1,.72-.24,3.92,3.92,0,0,1,.69-.11,3.34,3.34,0,0,1,1.33.17,3,3,0,0,1,1.19.77,4.11,4.11,0,0,1,.29.36,1.88,1.88,0,0,1,.22.41,1.33,1.33,0,0,1,.32-.7,2.49,2.49,0,0,1,.64-.53,3.5,3.5,0,0,1,.82-.34,3.79,3.79,0,0,1,.86-.14,3.4,3.4,0,0,1,1.35.17,3.23,3.23,0,0,1,1.22.77,3.3,3.3,0,0,1,.79,2.38v6h-2.29V95.8q0-.51,0-1.12t0-1.26q0-.65,0-1.23t0-1c0-.3,0-.53-.06-.67a1.27,1.27,0,0,0-1.29-1.2,1.43,1.43,0,0,0-1,.35,1.11,1.11,0,0,0-.4.9,1,1,0,0,1-.32-.18,1.55,1.55,0,0,1-.28-.31,2.22,2.22,0,0,1,0,.27v6.3h-2.25q0-.3,0-.81t0-1.12V93.42q0-.65,0-1.23t-.05-1a4.46,4.46,0,0,0-.09-.67,1.44,1.44,0,0,0-.53-.85,1.41,1.41,0,0,0-.85-.28,1.3,1.3,0,0,0-1,.33,1.14,1.14,0,0,0-.33.85,1.07,1.07,0,0,1-.42-.29,1.31,1.31,0,0,1-.3-.47v6.83h-2.29V87.5h2.29Z"/><path class="cls-4" d="M45.8,1.6c-3.22,1.47-9.05,3.87-8.69,9.3C40,8.53,47,3.93,45.8,1.6Z"/><path class="cls-4" d="M37.23,11.11c3.14,2.33,7.66-.9,11.54-2.81C47.38,5.43,40.54,8.9,37.23,11.11Z"/><path class="cls-4" d="M35.47,7.53c-3,1.8-8.58,4.83-7.63,10.18C30.46,15,36.89,9.72,35.47,7.53Z"/><path class="cls-4" d="M28,17.9c3.37,2,7.52-1.72,11.17-4C37.46,11.16,31,15.36,28,17.9Z"/><path class="cls-4" d="M26.55,15.43c-2.74,2.24-7.77,6.06-6,11.21C22.72,23.62,28.28,17.38,26.55,15.43Z"/><path class="cls-4" d="M20.69,26.8c3.63,1.45,7.19-2.82,10.44-5.66C29.06,18.73,23.32,23.84,20.69,26.8Z"/><path class="cls-4" d="M17.93,25.51c-1.85,3-5.33,8.28-2,12.56C17,34.49,20.21,26.78,17.93,25.51Z"/><path class="cls-4" d="M16.15,38.17c3.91.17,5.85-5,8-8.79C21.39,27.79,17.66,34.5,16.15,38.17Z"/><path class="cls-4" d="M12.37,36.61c-1,3.41-2.88,9.42,1.5,12.63C13.93,45.51,14.9,37.22,12.37,36.61Z"/><path class="cls-4" d="M14.1,49.28c3.8-.9,4.26-6.44,5.3-10.63C16.31,37.87,14.55,45.34,14.1,49.28Z"/><path class="cls-4" d="M9.8,50.35c-.13,3.54-.58,9.82,4.44,11.91C13.41,58.63,12.4,50.34,9.8,50.35Z"/><path class="cls-4" d="M14.47,62.24C18,60.48,17.09,55,17.11,50.67,13.92,50.64,14,58.31,14.47,62.24Z"/><path class="cls-4" d="M10.54,62.76c.58,3.49,1.38,9.73,6.71,10.79C15.72,70.14,13.08,62.23,10.54,62.76Z"/><path class="cls-4" d="M17.48,73.48c3.06-2.43,1.13-7.62.29-11.86C14.64,62.23,16.21,69.73,17.48,73.48Z"/><path class="cls-4" d="M13.94,74.49c1.32,3.28,3.45,9.21,8.88,9.09C20.6,80.58,16.32,73.43,13.94,74.49Z"/><path class="cls-4" d="M23,83.47c2.47-3-.54-7.69-2.27-11.64C17.84,73.09,21,80.07,23,83.47Z"/><path class="cls-4" d="M19.76,84.5c1.81,3,4.85,8.56,10.19,7.6C27.29,89.48,21.94,83.08,19.76,84.5Z"/><path class="cls-4" d="M30.15,92c2-3.37-1.74-7.51-4.07-11.14C23.39,82.51,27.6,88.92,30.15,92Z"/><path class="cls-4" d="M28.77,95c2.55,2.46,6.93,7,11.84,4.67C37.34,97.84,30.5,93,28.77,95Z"/><path class="cls-4" d="M40.75,99.48c1-3.78-3.65-6.8-6.85-9.7C31.75,92.12,37.49,97.21,40.75,99.48Z"/><path class="cls-4" d="M40.91,102.82c3,1.85,8.27,5.34,12.56,2C49.9,103.75,42.18,100.55,40.91,102.82Z"/><path class="cls-4" d="M53.58,104.61c.17-3.91-5-5.86-8.79-8C43.2,99.37,49.91,103.1,53.58,104.61Z"/><path class="cls-4" d="M44.94,6.33a8.56,8.56,0,0,0,9.34-3.55C51.34,2.5,46.57,2.34,44.94,6.33Z"/><path class="cls-4" d="M88.92,1.6c3.22,1.47,9,3.87,8.68,9.3C94.71,8.53,87.75,3.93,88.92,1.6Z"/><path class="cls-4" d="M97.48,11.11c-3.14,2.33-7.66-.9-11.54-2.81C87.34,5.43,94.18,8.9,97.48,11.11Z"/><path class="cls-4" d="M99.25,7.53c3,1.8,8.58,4.83,7.63,10.18C104.26,15,97.83,9.72,99.25,7.53Z"/><path class="cls-4" d="M106.74,17.9c-3.37,2-7.52-1.72-11.17-4C97.26,11.16,103.69,15.36,106.74,17.9Z"/><path class="cls-4" d="M108.16,15.43c2.74,2.24,7.77,6.06,6,11.21C112,23.62,106.44,17.38,108.16,15.43Z"/><path class="cls-4" d="M114,26.8c-3.63,1.45-7.19-2.82-10.45-5.66C105.66,18.73,111.39,23.84,114,26.8Z"/><path class="cls-4" d="M116.78,25.51c1.85,3,5.34,8.28,2,12.56C117.7,34.49,114.51,26.78,116.78,25.51Z"/><path class="cls-4" d="M118.56,38.17c-3.91.17-5.86-5-8-8.79C113.33,27.79,117.06,34.5,118.56,38.17Z"/><path class="cls-4" d="M122.35,36.61c1,3.41,2.88,9.42-1.5,12.63C120.79,45.51,119.82,37.22,122.35,36.61Z"/><path class="cls-4" d="M120.62,49.28c-3.81-.9-4.26-6.44-5.3-10.63C118.41,37.87,120.17,45.34,120.62,49.28Z"/><path class="cls-4" d="M124.92,50.35c.13,3.54.58,9.82-4.44,11.91C121.31,58.63,122.32,50.34,124.92,50.35Z"/><path class="cls-4" d="M120.25,62.24c-3.48-1.76-2.62-7.24-2.64-11.57C120.79,50.64,120.74,58.31,120.25,62.24Z"/><path class="cls-4" d="M124.18,62.76c-.58,3.49-1.39,9.73-6.71,10.79C119,70.14,121.63,62.23,124.18,62.76Z"/><path class="cls-4" d="M117.24,73.48c-3.06-2.43-1.13-7.62-.29-11.86C120.08,62.23,118.5,69.73,117.24,73.48Z"/><path class="cls-4" d="M120.77,74.49c-1.32,3.28-3.45,9.21-8.88,9.09C114.12,80.58,118.4,73.43,120.77,74.49Z"/><path class="cls-4" d="M111.68,83.47c-2.47-3,.54-7.69,2.28-11.64C116.88,73.09,113.72,80.07,111.68,83.47Z"/><path class="cls-4" d="M115,84.5c-1.81,3-4.85,8.56-10.2,7.6C107.43,89.48,112.77,83.08,115,84.5Z"/><path class="cls-4" d="M104.57,92c-2-3.37,1.74-7.51,4.07-11.14C111.33,82.51,107.12,88.92,104.57,92Z"/><path class="cls-4" d="M106,95c-2.55,2.46-6.93,7-11.84,4.67C97.38,97.84,104.22,93,106,95Z"/><path class="cls-4" d="M94,99.48c-1-3.78,3.65-6.8,6.85-9.7C103,92.12,97.23,97.21,94,99.48Z"/><path class="cls-4" d="M93.81,102.82c-3,1.85-8.27,5.34-12.57,2C84.82,103.75,92.53,100.55,93.81,102.82Z"/><path class="cls-4" d="M81.14,104.61c-.17-3.91,5-5.86,8.78-8C91.52,99.37,84.81,103.1,81.14,104.61Z"/><path class="cls-4" d="M89.78,6.33a8.56,8.56,0,0,1-9.33-3.55C83.38,2.5,88.15,2.34,89.78,6.33Z"/><path class="cls-3" d="M67.36,98.83a44.93,44.93,0,1,1,45-44.9A45,45,0,0,1,67.36,98.83Zm0-85.83A40.9,40.9,0,1,0,108.3,53.94,41,41,0,0,0,67.36,13Z"/><path class="cls-3" d="M67.58,91.75A37.89,37.89,0,1,1,105.5,53.89,37.94,37.94,0,0,1,67.58,91.75Z"/><path class="cls-5" d="M86.66,68.13l1.51,4.16c-9.24-1-17.59,2.56-20.82,4.16C69,75,77,68.61,86.66,68.13Z"/><path class="cls-5" d="M48,68.13l-1.51,4.16c9.24-1,17.59,2.56,20.82,4.16C65.72,75,57.71,68.61,48,68.13Z"/><path class="cls-5" d="M88.32,62.51c-.64.14-1.26.3-1.86.47l1.16,2.33c-7.27,1-16.07,5.63-20.17,11,2.69-2.38,10.47-8.22,19.35-9.1l.47,0a23.44,23.44,0,0,1,3.4,0Z"/><path class="cls-5" d="M84.61,55.15,81.72,49.5a11.31,11.31,0,0,0-2.85,1.34l.71,1.33c.39-.19.79-.37,1.2-.53l4.69,9.42c-6.76,1.9-15,7.22-18.13,15.37h0l.36-.61.08-.13A30.92,30.92,0,0,1,84.91,63l.43-.13c.88-.27,1.8-.52,2.76-.74h.06Z"/><path class="cls-5" d="M82.76,59l-1.3-2.43-.22-.41-2.75-5.13-.22-.4-2.11-3.93c-.92.38-5.52,2.72-7.5,6.69,1.16-1.82,3.39-3.43,6.7-4.73l5.05,9.84S67,65.45,67.35,76.45c.37-5.1,5.34-13,15.55-17.15Z"/><path class="cls-5" d="M46.4,62.51c.64.14,1.26.3,1.86.47L47.1,65.31c7.27,1,16.07,5.63,20.17,11C64.58,74,56.8,68.13,47.92,67.26l-.47,0a23.44,23.44,0,0,0-3.4,0Z"/><path class="cls-5" d="M50.11,55.15,53,49.5a11.31,11.31,0,0,1,2.85,1.34l-.71,1.33c-.39-.19-.79-.37-1.2-.53l-4.69,9.42c6.76,1.9,15,7.22,18.13,15.37h0L67,75.84l-.08-.13A30.92,30.92,0,0,0,49.81,63l-.43-.13c-.88-.27-1.8-.52-2.76-.74h-.06Z"/><path class="cls-5" d="M52,59l1.3-2.43.22-.41,2.75-5.13.22-.4,2.11-3.93c.92.38,5.52,2.72,7.5,6.69-1.16-1.82-3.39-3.43-6.7-4.73l-5.05,9.84s13.48,6.9,13.08,17.89C67,71.34,62,63.42,51.82,59.3Z"/><path class="cls-6" d="M64,45h6.39a10.76,10.76,0,0,0,3.2,5.4l-5.87,13V54.17a1.55,1.55,0,1,0-1,0v9.31l-5.87-13A10.76,10.76,0,0,0,64,45"/><path class="cls-6" d="M54.26,37.85l13-6.48,13,6.48-2.51,1.26v4.78a.8.8,0,0,1,.07,1.44l.21.37.59,1.08H76.17l.59-1.08.21-.37A.8.8,0,0,1,77,43.89V39.42l-1.5.75v-.65c0-1.3-1.61-2-2.65-2.4a20.3,20.3,0,0,0-11.34,0c-1,.35-2.65,1.1-2.65,2.4v.65Z"/><path class="cls-6" d="M75,44H73.81a.91.91,0,0,0,.15-.49c0-.82-1.27-1.55-3.17-2a18.4,18.4,0,0,0-7.13,0c-1.9.41-3.17,1.13-3.17,2a.91.91,0,0,0,.15.49H59.46V39.53c0-1.47,3.48-2.65,7.76-2.65S75,38.06,75,39.53h0Z"/></svg>