<svg xmlns="http://www.w3.org/2000/svg" width="46.999" height="47.752" viewBox="0 0 46.999 47.752">
  <g id="Group_10271" data-name="Group 10271" transform="translate(-58 -1950.189)">
    <path id="Path_9489" data-name="Path 9489" d="M312.66,315.32h-3.175v-3.175a.634.634,0,0,0-1.267,0v3.175h-3.175a.634.634,0,1,0,0,1.267h3.175v3.175a.634.634,0,1,0,1.267,0v-3.175h3.175a.634.634,0,0,0,0-1.267Zm0,0" transform="translate(-214.266 1671.579)" fill="#14bb5b"/>
    <g id="Group_10270" data-name="Group 10270">
      <path id="Path_9488" data-name="Path 9488" d="M40.258,27.573a10.384,10.384,0,0,0-3.61-.643c-.156,0-.311,0-.465.011V5.519a2.749,2.749,0,0,0-2.746-2.746H30.37V.634a.634.634,0,1,0-1.267,0V2.773H22.419V.634a.634.634,0,1,0-1.267,0V2.773H14.468V.634a.634.634,0,0,0-1.267,0V2.773H6.516V.634a.634.634,0,0,0-1.267,0V2.773H2.808A2.749,2.749,0,0,0,.062,5.519V41.429a2.749,2.749,0,0,0,2.746,2.746H28.794a10.412,10.412,0,1,0,11.464-16.6ZM2.808,42.907a1.48,1.48,0,0,1-1.479-1.479V5.519A1.48,1.48,0,0,1,2.808,4.04H5.249V5.187a2.746,2.746,0,1,0,1.267,0V4.04H13.2V5.187a2.746,2.746,0,1,0,1.267,0V4.04h6.684V5.187a2.746,2.746,0,1,0,1.267,0V4.04H29.1V5.187a2.746,2.746,0,1,0,1.267,0V4.04h3.066a1.48,1.48,0,0,1,1.479,1.479V27.077a10.41,10.41,0,0,0-8.642,9.364c-.026.3-.038.6-.038.9a10.317,10.317,0,0,0,1.614,5.564ZM5.883,6.38A1.479,1.479,0,1,1,4.4,7.859,1.479,1.479,0,0,1,5.883,6.38Zm7.951,0a1.479,1.479,0,1,1-1.479,1.479A1.479,1.479,0,0,1,13.834,6.38Zm7.951,0a1.479,1.479,0,1,1-1.479,1.479A1.479,1.479,0,0,1,21.785,6.38Zm7.951,0a1.479,1.479,0,1,1-1.479,1.479A1.479,1.479,0,0,1,29.736,6.38Zm6.912,40.109A9.135,9.135,0,0,1,27.5,37.343c0-.264.011-.532.034-.793a9.146,9.146,0,1,1,9.111,9.938Zm0,0" transform="translate(57.938 1950.189)" fill="#14bb5b"/>
      <path id="Path_9490" data-name="Path 9490" d="M73.9,336.25H55.7a.634.634,0,1,0,0,1.267H73.9a.634.634,0,1,0,0-1.267Zm0,0" transform="translate(8.747 1649.453)" fill="#14bb5b"/>
      <path id="Path_9491" data-name="Path 9491" d="M55.7,227.587H78.932a.634.634,0,1,0,0-1.267H55.7a.634.634,0,1,0,0,1.267Zm0,0" transform="translate(8.746 1747.772)" fill="#14bb5b"/>
      <path id="Path_9492" data-name="Path 9492" d="M55.7,172.622H78.932a.634.634,0,0,0,0-1.267H55.7a.634.634,0,0,0,0,1.267Zm0,0" transform="translate(8.746 1796.932)" fill="#14bb5b"/>
      <path id="Path_9493" data-name="Path 9493" d="M55.7,282.548h20.6a.634.634,0,0,0,0-1.267H55.7a.634.634,0,1,0,0,1.267Zm0,0" transform="translate(8.746 1698.616)" fill="#14bb5b"/>
    </g>
  </g>
</svg>
