<svg xmlns="http://www.w3.org/2000/svg" width="44" height="43.267" viewBox="0 0 44 43.267">
  <path id="open-book_1_" data-name="open-book (1)" d="M45.267,30.2l-3.667-4V8.6a.733.733,0,0,0-.733-.733h-.733V2.733A.733.733,0,0,0,39.4,2H13.733a3.667,3.667,0,0,0-3.667,3.667V26.259A5.124,5.124,0,0,0,7.214,35H7.133a5.133,5.133,0,1,0,0,10.267H41.6a.733.733,0,0,0,.733-.733V36.467h2.933A.733.733,0,0,0,46,35.733v-8.8C46,26.528,45.672,30.2,45.267,30.2ZM21.8,3.467H38.667v4.4H21.8ZM33.533,9.333v6.38L31.942,13.33a.726.726,0,0,0-1.217,0l-1.591,2.383V9.333ZM16.667,3.467h3.667v4.4H16.667Zm-2.933,0H15.2v4.4H13.733a2.2,2.2,0,0,1,0-4.4Zm-2.2,5.111a3.611,3.611,0,0,0,2.2.755H27.667v8.8a.739.739,0,0,0,.521.7.727.727,0,0,0,.821-.3l2.325-3.483,2.325,3.483a.722.722,0,0,0,.609.33.709.709,0,0,0,.213-.029.739.739,0,0,0,.521-.7v-8.8h5.133V26.2h-28.6ZM7.867,43.8H7.133a3.667,3.667,0,1,1,0-7.333h.733ZM7.133,31.333A3.667,3.667,0,0,1,10.8,27.667h.733V35H10.8a3.667,3.667,0,0,1-3.667-3.667ZM13,43.8H9.333V36.467H13ZM13,35V27.667h3.667V35Zm27.867,8.8h-26.4V36.467h26.4ZM44.533,35h-26.4V27.667h26.4Z" transform="translate(-2 -2)" fill="#14bb5b"/>
</svg>
