<svg xmlns="http://www.w3.org/2000/svg" width="26.933" height="30.851" viewBox="0 0 26.933 30.851">
  <path id="Path_1" data-name="Path 1" d="M-340.348,25.851A4.657,4.657,0,0,1-345,21.2V11.16a4.657,4.657,0,0,1,4.652-4.652h1.712V1.945A7.032,7.032,0,0,1-331.536-5a7.032,7.032,0,0,1,7.1,6.945V6.508h1.716a4.657,4.657,0,0,1,4.652,4.652v4.53a.98.98,0,0,1-.979.979.981.981,0,0,1-.979-.979V11.16a2.7,2.7,0,0,0-2.693-2.693h-17.629a2.7,2.7,0,0,0-2.693,2.693V21.2a2.7,2.7,0,0,0,2.693,2.693h17.629a2.7,2.7,0,0,0,2.693-2.693.981.981,0,0,1,.979-.979.98.98,0,0,1,.979.979,4.657,4.657,0,0,1-4.652,4.652Zm8.812-28.892a5.072,5.072,0,0,0-5.142,4.987V6.508h10.283V1.945A5.072,5.072,0,0,0-331.536-3.041Z" transform="translate(345 5)" fill="#707070"/>
</svg>
