<svg xmlns="http://www.w3.org/2000/svg" width="36.711" height="36.708" viewBox="0 0 36.711 36.708">
  <g id="bus_4_" data-name="bus (4)" transform="translate(78.334 -14.684)">
    <g id="Group_9497" data-name="Group 9497" transform="translate(-78.334 14.684)">
      <g id="Group_9496" data-name="Group 9496" transform="translate(0 0)">
        <path id="Path_9475" data-name="Path 9475" d="M33.927.021H14.405A2.933,2.933,0,0,0,11.624,3.08V28.164c0,.009,0,.017.005.026a.607.607,0,0,0,.041.2l0,.013v0l1.448,3.327a1.156,1.156,0,0,0,1.05.711h.511v2.447a1.813,1.813,0,0,0,.113.612H7.342V24.493a1.837,1.837,0,0,0-1.835-1.835V12.214a4.894,4.894,0,1,0-1.224,0V22.657a1.837,1.837,0,0,0-1.835,1.835V35.505H.612a.612.612,0,0,0,0,1.224H36.1a.612.612,0,1,0,0-1.224h-2.56a1.812,1.812,0,0,0,.113-.612V32.446h.51a1.157,1.157,0,0,0,1.05-.711l1.448-3.328v0s0-.009,0-.014a.6.6,0,0,0,.041-.2c0-.009.005-.016.005-.025V3.08A2.933,2.933,0,0,0,33.927.021ZM1.224,7.363a3.671,3.671,0,1,1,3.671,3.671A3.671,3.671,0,0,1,1.224,7.363ZM6.118,35.505H3.671V24.493a.613.613,0,0,1,.612-.612H5.506a.613.613,0,0,1,.612.612Zm12.236-.612a.613.613,0,0,1-.612.612H16.519a.613.613,0,0,1-.612-.612V32.446h2.447Zm1.111.612a1.812,1.812,0,0,0,.113-.612V32.446h9.177v2.447a1.813,1.813,0,0,0,.113.612Zm12.96-.612a.612.612,0,0,1-.612.612H30.59a.612.612,0,0,1-.612-.612V32.446h2.447v2.447ZM34.1,31.223H14.235L13.17,28.775H35.163ZM21.413,27.552V26.328a.613.613,0,0,1,.612-.612h4.283a.613.613,0,0,1,.612.612v1.224ZM35.484,3.08V27.552H28.143V26.328a1.837,1.837,0,0,0-1.835-1.835H22.025a1.837,1.837,0,0,0-1.835,1.835v1.224H12.848V3.08a1.716,1.716,0,0,1,1.557-1.835H33.927A1.716,1.716,0,0,1,35.484,3.08Z" transform="translate(0 -0.021)" fill="#14bb5b"/>
        <path id="Path_9476" data-name="Path 9476" d="M214.623,34.155H198.1a1.837,1.837,0,0,0-1.835,1.835V36.6a1.837,1.837,0,0,0,1.835,1.835h16.518a1.837,1.837,0,0,0,1.835-1.835V35.99A1.837,1.837,0,0,0,214.623,34.155Zm.612,2.447a.612.612,0,0,1-.612.612H198.1a.613.613,0,0,1-.612-.612V35.99a.613.613,0,0,1,.612-.612h16.518a.612.612,0,0,1,.612.612Z" transform="translate(-182.198 -31.708)" fill="#14bb5b"/>
        <path id="Path_9477" data-name="Path 9477" d="M198.716,298.688a2.447,2.447,0,1,0,2.447,2.447A2.447,2.447,0,0,0,198.716,298.688Zm0,3.671a1.224,1.224,0,1,1,1.224-1.224A1.224,1.224,0,0,1,198.716,302.359Z" transform="translate(-182.198 -277.275)" fill="#14bb5b"/>
        <path id="Path_9478" data-name="Path 9478" d="M412.049,298.688a2.447,2.447,0,1,0,2.447,2.447A2.447,2.447,0,0,0,412.049,298.688Zm0,3.671a1.224,1.224,0,1,1,1.224-1.224A1.224,1.224,0,0,1,412.049,302.359Z" transform="translate(-380.236 -277.275)" fill="#14bb5b"/>
        <path id="Path_9479" data-name="Path 9479" d="M214.623,110.955H198.1a1.837,1.837,0,0,0-1.835,1.835v8.565a1.837,1.837,0,0,0,1.835,1.835h16.518a1.837,1.837,0,0,0,1.835-1.835V112.79A1.837,1.837,0,0,0,214.623,110.955Zm.612,10.4a.612.612,0,0,1-.612.612H198.1a.613.613,0,0,1-.612-.612V112.79a.613.613,0,0,1,.612-.612h16.518a.612.612,0,0,1,.612.612Z" transform="translate(-182.198 -103.002)" fill="#14bb5b"/>
      </g>
    </g>
  </g>
</svg>
