<svg xmlns="http://www.w3.org/2000/svg" width="38.157" height="48.507" viewBox="0 0 38.157 48.507">
  <path id="student_1_" data-name="student (1)" d="M104.818,43.807a2.669,2.669,0,1,0,5.338,0,2.631,2.631,0,0,0-2.089-2.6V28.9c0-.025.021-.049.019-.073a.657.657,0,0,0,.016-.069.617.617,0,0,0-.4-.578l-7.467-2.746-9.306-3.422a.618.618,0,0,0-.428,0L73.724,28.183a.622.622,0,0,0-.407.578.613.613,0,0,0,.386.585l5.035,1.963v6.155a.621.621,0,0,0,.4.583c.108.04.219.078.322.116v5.287a11.5,11.5,0,0,0,3.314,8.037,9.735,9.735,0,0,0,1.661,1.391V55.56H79.821A7.866,7.866,0,0,0,72,63.461v6.4a.583.583,0,0,0,.577.62h36.277a.659.659,0,0,0,.665-.62v-6.4a7.942,7.942,0,0,0-7.91-7.9H96.978V52.9a10.1,10.1,0,0,0,1.675-1.411,11.485,11.485,0,0,0,3.3-8.037V38.164c.1-.039.215-.077.323-.117a.62.62,0,0,0,.4-.583V31.309l4.146-1.634V41.214A2.682,2.682,0,0,0,104.818,43.807Zm4.124,0a1.428,1.428,0,1,1-1.428-1.428,1.428,1.428,0,0,1,1.428,1.428Zm-.667,19.654v5.78H73.244v-5.78A6.621,6.621,0,0,1,79.821,56.8h5.015l5.387,3.536a.622.622,0,0,0,.669,0L96.558,56.8h5.051A6.7,6.7,0,0,1,108.275,63.461Zm-12.541-7.59L90.579,59.1l-4.9-3.22V53.64a10.812,10.812,0,0,0,10.053.015Zm4.975-12.42a10.236,10.236,0,0,1-2.935,7.17,9.763,9.763,0,0,1-14.125,0,10.245,10.245,0,0,1-2.944-7.17V38.585a33.521,33.521,0,0,0,10,1.544,33.022,33.022,0,0,0,10-1.544Zm.726-6.422a31.925,31.925,0,0,1-21.454,0V31.793l10.5,4.082a.65.65,0,0,0,.462,0l10.493-4.082Zm.445-6.746a.618.618,0,0,0-.1.04l-11.061,4.3L79.655,30.323a.611.611,0,0,0-.1-.04l-3.856-1.5,15.019-5.52,15.02,5.521Z" transform="translate(-72 -21.978)" fill="#14bb5b"/>
</svg>
