<svg id="teacher" xmlns="http://www.w3.org/2000/svg" width="41.941" height="41.941" viewBox="0 0 41.941 41.941">
  <g id="Group_9515" data-name="Group 9515">
    <g id="Group_9514" data-name="Group 9514">
      <path id="Path_9512" data-name="Path 9512" d="M148.144,17.158l.191-.318a2.106,2.106,0,0,0-.064-2.033,2.028,2.028,0,0,0-1.779-1.017h-2.8V10.04a3.2,3.2,0,0,0-2.987-3.368h-2.1a3.338,3.338,0,1,0-3.5-3.368,3.288,3.288,0,0,0,3.114,3.3h-2.1a3.2,3.2,0,0,0-2.987,3.368v3.749h-2.8a2.091,2.091,0,0,0-1.843,3.05l.191.318a2.233,2.233,0,0,0,1.525,1.08l.89,10.422a.639.639,0,1,0,1.271-.127l-.89-10.231h13.853l-.89,10.231a.639.639,0,1,0,1.271.127l.89-10.358A2.233,2.233,0,0,0,148.144,17.158ZM136.388,3.3a2.033,2.033,0,1,1,4.067,0,2.1,2.1,0,0,1-2.034,2.1A2.062,2.062,0,0,1,136.388,3.3Zm-1.97,6.736a1.941,1.941,0,0,1,1.716-2.1h4.575a1.941,1.941,0,0,1,1.716,2.1V13.79h-8.007V10.04ZM147.064,16.2v.318a.73.73,0,0,1-.7.381H130.478a.878.878,0,0,1-.7-.381l-.191-.318a.81.81,0,0,1,0-.763.7.7,0,0,1,.635-.381h16.2a.7.7,0,0,1,.635.381A.811.811,0,0,1,147.064,16.2Z" transform="translate(-117.451)" fill="#18b85c"/>
      <path id="Path_9513" data-name="Path 9513" d="M188.468,346.439h-1.462a3.541,3.541,0,1,0-4.766-3.3,3.436,3.436,0,0,0,2.351,3.3H183.13a3.187,3.187,0,0,0-3.177,3.177v2.605a.6.6,0,0,0,.635.635h10.549a.6.6,0,0,0,.635-.635v-2.605A3.385,3.385,0,0,0,188.468,346.439Zm-5.02-3.368a2.288,2.288,0,1,1,2.288,2.288A2.278,2.278,0,0,1,183.448,343.071Zm-2.351,8.515v-1.97A1.912,1.912,0,0,1,183,347.71h5.4a1.912,1.912,0,0,1,1.906,1.906v1.97Z" transform="translate(-164.765 -310.916)" fill="#18b85c"/>
      <path id="Path_9514" data-name="Path 9514" d="M8.706,345H7.181a3.517,3.517,0,0,0,2.351-3.368,3.559,3.559,0,0,0-7.117,0A3.669,3.669,0,0,0,4.766,345H3.177A3.187,3.187,0,0,0,0,348.174v2.669a.6.6,0,0,0,.635.635H11.248a.6.6,0,0,0,.635-.635v-2.605A3.2,3.2,0,0,0,8.706,345Zm-5.084-3.368a2.288,2.288,0,1,1,2.288,2.288A2.278,2.278,0,0,1,3.622,341.629Zm6.99,8.579H1.271v-1.97a1.912,1.912,0,0,1,1.906-1.906H8.706a1.912,1.912,0,0,1,1.906,1.906Z" transform="translate(0 -309.537)" fill="#18b85c"/>
      <path id="Path_9515" data-name="Path 9515" d="M364.846,345h-1.525a3.517,3.517,0,0,0,2.351-3.368,3.553,3.553,0,0,0-3.559-3.559,3.607,3.607,0,0,0-3.622,3.559A3.669,3.669,0,0,0,360.843,345h-1.525a3.187,3.187,0,0,0-3.177,3.177v2.669a.6.6,0,0,0,.635.635h10.612a.6.6,0,0,0,.635-.635v-2.605A3.242,3.242,0,0,0,364.846,345Zm-5.084-3.368a2.288,2.288,0,1,1,2.288,2.288A2.239,2.239,0,0,1,359.762,341.629Zm6.99,8.579h-9.341v-1.97a1.912,1.912,0,0,1,1.906-1.906h5.529a1.912,1.912,0,0,1,1.906,1.906Z" transform="translate(-326.082 -309.537)" fill="#18b85c"/>
      <path id="Path_9516" data-name="Path 9516" d="M.635,164.93H10.8a.6.6,0,0,0,.635-.635V161.88A3.187,3.187,0,0,0,8.261,158.7H7.054a3.343,3.343,0,0,0,2.1-3.177,3.432,3.432,0,0,0-6.863,0,3.506,3.506,0,0,0,2.1,3.177H3.177A3.187,3.187,0,0,0,0,161.88V164.3A.6.6,0,0,0,.635,164.93Zm2.923-9.4a2.161,2.161,0,1,1,2.161,2.161A2.143,2.143,0,0,1,3.559,155.526Zm-2.288,6.418a1.912,1.912,0,0,1,1.906-1.906H8.2a1.912,1.912,0,0,1,1.906,1.906v1.779H1.271Z" transform="translate(0 -139.258)" fill="#18b85c"/>
      <path id="Path_9517" data-name="Path 9517" d="M361.412,161.88V164.3a.6.6,0,0,0,.635.635h10.168a.6.6,0,0,0,.635-.635V161.88a3.229,3.229,0,0,0-3.177-3.177h-1.207a3.343,3.343,0,0,0,2.1-3.177,3.432,3.432,0,1,0-6.863,0,3.506,3.506,0,0,0,2.1,3.177h-1.207A3.186,3.186,0,0,0,361.412,161.88Zm3.559-6.355a2.161,2.161,0,1,1,2.161,2.161A2.143,2.143,0,0,1,364.971,155.526Zm4.7,4.448a1.912,1.912,0,0,1,1.906,1.906v1.779h-8.9V161.88a1.912,1.912,0,0,1,1.906-1.906Z" transform="translate(-330.909 -139.258)" fill="#18b85c"/>
    </g>
  </g>
</svg>
