<svg xmlns="http://www.w3.org/2000/svg" width="44.935" height="44.941" viewBox="0 0 44.935 44.941">
  <g id="user_3_" data-name="user (3)" transform="translate(0 0)">
    <path id="Path_9498" data-name="Path 9498" d="M22.471,0a22.471,22.471,0,0,0,0,44.941q1.015,0,2.022-.091c.624-.056,1.242-.142,1.856-.249l.236-.042A22.471,22.471,0,0,0,22.471,0ZM20.665,43.363h-.053c-.583-.052-1.161-.129-1.734-.229-.033-.006-.066-.01-.1-.016q-.84-.15-1.664-.37l-.133-.034c-.535-.145-1.065-.314-1.587-.5-.054-.019-.109-.037-.163-.057-.512-.188-1.014-.4-1.509-.626-.061-.027-.123-.054-.184-.083-.485-.225-.961-.478-1.428-.744l-.2-.112q-.689-.4-1.348-.859l-.2-.138c-.433-.307-.854-.633-1.265-.974l-.113-.1V32.207a8.249,8.249,0,0,1,8.239-8.239H27.714a8.249,8.249,0,0,1,8.239,8.239v6.316l-.1.083q-.628.524-1.29.993l-.176.12q-.668.464-1.369.874l-.177.1c-.474.27-.955.524-1.446.753-.056.026-.113.051-.17.075-.5.23-1.006.442-1.521.631-.051.019-.1.035-.15.053-.524.188-1.056.358-1.595.5l-.129.032c-.55.145-1.1.27-1.666.371l-.1.015c-.574.1-1.153.178-1.736.23h-.053c-.6.052-1.2.079-1.805.079s-1.211-.023-1.809-.074Zm16.786-6.229V32.207a9.748,9.748,0,0,0-9.737-9.737H17.227A9.748,9.748,0,0,0,7.49,32.207v4.926a20.973,20.973,0,1,1,29.961,0Zm0,0" fill="#14bb5b"/>
    <path id="Path_9499" data-name="Path 9499" d="M167.49,64a7.49,7.49,0,1,0,7.49,7.49A7.49,7.49,0,0,0,167.49,64Zm0,13.482a5.992,5.992,0,1,1,5.992-5.992A5.992,5.992,0,0,1,167.49,77.482Zm0,0" transform="translate(-145.02 -58.008)" fill="#14bb5b"/>
  </g>
</svg>
